<svg width="40" height="44" viewBox="0 0 40 44" fill="none" xmlns="http://www.w3.org/2000/svg">
<g clip-path="url(#clip0)" filter="url(#filter0_d)">
<path d="M23.3263 33.2116H22.1611C21.8958 34.1084 21.0621 34.7653 20.08 34.7653C19.0979 34.7653 18.2674 34.1084 17.999 33.2116H16.8274C16.7958 33.2116 16.7642 33.2084 16.7295 33.2053C17.02 34.7905 18.4095 36 20.0768 36C21.7442 36 23.1337 34.7937 23.4242 33.2053C23.3958 33.2084 23.3611 33.2116 23.3263 33.2116Z" fill="#FFD243"/>
<path d="M23.9642 27.1832H16.1926H14.9516C14.9579 27.2495 14.961 27.3158 14.961 27.3884C14.961 27.4011 14.961 27.4169 14.961 27.4295C14.9642 27.4863 14.9674 27.5463 14.9674 27.6063L14.9705 27.8053V31.3579C14.9705 32.3811 15.8011 33.2147 16.8242 33.2147H23.3263C24.3495 33.2147 25.18 32.3811 25.18 31.3579V27.8147C25.18 27.8116 25.1895 27.3726 25.2021 27.1832H23.9642ZM16.2116 28.4211H23.9453V29.5295H16.2116V28.4211ZM23.3263 31.9737H16.8305C16.4895 31.9737 16.2116 31.6958 16.2116 31.3547V30.7642H23.9453V31.3547C23.9453 31.6958 23.6674 31.9737 23.3263 31.9737Z" fill="#FFD243"/>
<path d="M20.3832 24.4358V6.67896C20.3863 6.65054 20.3926 6.62527 20.3926 6.59685C20.3926 6.2558 20.1147 5.97791 19.7737 5.97791H18.1347C16.8589 5.97791 15.9874 6.55896 15.7632 7.52843C15.0621 7.30738 14.3705 7.38948 13.7832 7.76843C13.0568 8.2358 12.5705 9.14212 12.5705 10.0263C12.5705 10.1969 12.5863 10.3642 12.6211 10.5316C11.4937 10.8695 10.6726 11.8895 10.6726 13.0895C10.6726 13.4432 10.7421 13.7874 10.8811 14.1095C10.4358 14.5958 10.18 15.2305 10.18 15.8905C10.18 16.6358 10.4989 17.3337 11.0421 17.8326C10.8021 18.2337 10.6758 18.6916 10.6758 19.1684C10.6758 20.419 11.5632 21.4705 12.7632 21.7674C12.7189 21.9537 12.7 22.1495 12.7 22.3421C12.7 23.9211 13.7105 25.0232 15.1568 25.0232C15.52 25.0232 15.9211 24.96 16.2811 24.8116C16.4011 25.0547 16.5653 25.2821 16.7674 25.4874C17.2284 25.9547 17.8411 26.2326 18.4063 26.2326C19.3821 26.2326 20.0642 25.819 20.3042 25.1211C20.3579 25.0295 20.3926 24.9221 20.3926 24.8053V24.7011C20.3989 24.6411 20.4021 24.5811 20.4021 24.5211C20.3895 24.4895 20.3863 24.4611 20.3832 24.4358ZM18.3968 24.9916C18.1632 24.9916 17.8632 24.8432 17.6358 24.6126C17.4905 24.4674 17.2474 24.1547 17.2537 23.719C17.2568 23.4284 17.0547 23.1726 16.7705 23.1095C16.4863 23.0432 16.1958 23.1884 16.0726 23.4537C15.9874 23.6369 15.58 23.7821 15.1442 23.7821C14.2442 23.7821 13.9253 23.0369 13.9253 22.339C13.9253 22.1053 13.9884 21.8779 14.1053 21.6695C14.3105 21.4011 14.9358 20.9842 15.7189 20.9526C16.06 20.94 16.3253 20.6495 16.3126 20.3084C16.3 19.9674 16.0158 19.7053 15.6684 19.7147C14.8221 19.7495 13.9726 20.1095 13.4232 20.6053C12.5863 20.599 11.9042 19.9547 11.9042 19.1621C11.9042 18.799 12.0495 18.4579 12.3116 18.1895C12.5516 17.9684 12.8105 17.7853 13.7389 17.7853C14.08 17.7853 14.3579 17.5074 14.3579 17.1663C14.3579 16.8253 14.08 16.5474 13.7389 16.5474C12.8263 16.5474 12.2958 16.7116 11.9105 16.9453C11.5979 16.6737 11.4084 16.2916 11.4084 15.8811C11.4084 15.5811 11.5095 15.2969 11.6863 15.0569C12.0653 15.3095 12.5105 15.4705 12.9305 15.4705C12.9463 15.4705 12.9589 15.4705 12.9747 15.4705C13.3158 15.4611 13.5842 15.1769 13.5779 14.8358C13.5684 14.5011 13.2937 14.2326 12.9589 14.2326C12.9526 14.2326 12.9495 14.2326 12.9432 14.2326C12.6305 14.2326 12.2263 13.98 12.0779 13.7432C11.9642 13.5379 11.9042 13.3137 11.9042 13.0832C11.9042 12.3474 12.4947 11.7442 13.2558 11.6558C13.6695 12.0758 14.2789 12.4642 15.1032 12.6695C15.1537 12.6821 15.2042 12.6884 15.2516 12.6884C15.5295 12.6884 15.7821 12.5021 15.8516 12.2179C15.9337 11.8863 15.7316 11.5516 15.4 11.4695C14.3358 11.2042 13.9568 10.5979 13.8716 10.4369C13.8274 10.3011 13.8021 10.1621 13.8021 10.0169C13.8021 9.54317 14.0674 9.04422 14.4495 8.79791C14.7779 8.58633 15.16 8.58001 15.5926 8.7758C15.8326 8.88633 16.24 8.8958 16.5463 8.70317C16.7895 8.54843 16.9347 8.29896 16.9411 8.01159C16.9442 7.81264 16.96 7.20633 18.1347 7.20633H19.1484V24.6379C19.1168 24.8116 18.9874 24.9916 18.3968 24.9916Z" fill="#FFD243"/>
<path d="M17.4905 14.2642C17.8253 13.7937 17.9642 13.2316 17.8695 12.7295C17.7937 12.3316 17.5758 11.9968 17.2568 11.7884C16.9695 11.6021 16.5874 11.681 16.4011 11.9684C16.2147 12.2558 16.2937 12.6379 16.5811 12.8242C16.6189 12.8495 16.6411 12.8937 16.6537 12.96C16.6789 13.0926 16.6474 13.3168 16.4832 13.5474C16.2368 13.8947 15.8768 13.9958 15.7474 13.9105C15.4632 13.7242 15.0779 13.8031 14.8916 14.0905C14.7053 14.3779 14.7842 14.76 15.0716 14.9463C15.3116 15.1042 15.5832 15.1768 15.8642 15.1768C16.4516 15.1768 17.0737 14.8516 17.4905 14.2642Z" fill="#FFD243"/>
<path d="M16.7326 17.2105C16.4042 17.1126 16.06 17.299 15.9621 17.6242C15.8642 17.9526 16.0505 18.2968 16.3758 18.3947C16.6411 18.4737 16.8968 18.7074 16.9821 18.9474C17.0453 19.1274 17.0168 19.2979 16.8905 19.4842C16.6979 19.7684 16.7737 20.1505 17.0579 20.3432C17.1653 20.4158 17.2853 20.4474 17.4021 20.4474C17.6011 20.4474 17.7968 20.3526 17.9137 20.1758C18.2579 19.6642 18.34 19.08 18.1442 18.5305C17.9295 17.9211 17.3768 17.4032 16.7326 17.2105Z" fill="#FFD243"/>
<path d="M26.9421 9.11686C25.0916 7.13054 22.4768 5.9937 19.7642 5.99054V7.22843C22.1326 7.22843 24.4189 8.22317 26.0358 9.96001C27.5168 11.5516 28.3316 13.6232 28.3316 15.7958C28.3316 17.3463 27.9116 18.8653 27.1189 20.1916C27.0968 20.2232 27.0779 20.2579 27.0621 20.2926C26.7779 20.8421 26.3737 21.3284 25.9442 21.8432C25.1263 22.8253 24.2232 23.9148 23.8316 25.7463H25.1074C25.4674 24.3537 26.1905 23.4821 26.8947 22.6326C27.34 22.0958 27.8011 21.5432 28.1453 20.8832C28.1579 20.8611 28.1705 20.8421 28.18 20.82C29.0863 19.3042 29.5663 17.5674 29.5663 15.7926C29.5695 13.3074 28.6347 10.939 26.9421 9.11686Z" fill="#FFD243"/>
<path d="M19.8779 4.45895C19.5368 4.45895 19.2589 4.18105 19.2589 3.84V0.618947C19.2621 0.277895 19.5368 0 19.8779 0C20.2189 0 20.4968 0.277895 20.4968 0.618947V3.84C20.4968 4.18105 20.2221 4.45895 19.8779 4.45895Z" fill="#FFD243"/>
<path d="M25.8968 6.07266C25.7926 6.07266 25.6853 6.04739 25.5874 5.99055C25.2905 5.82002 25.1895 5.44108 25.36 5.14739L26.9705 2.35581C27.141 2.05897 27.52 1.95792 27.8137 2.12844C28.1105 2.29897 28.2116 2.67792 28.041 2.97476L26.4305 5.76634C26.32 5.96213 26.1116 6.07266 25.8968 6.07266Z" fill="#FFD243"/>
<path d="M30.3053 10.5347C30.0905 10.5347 29.8853 10.4242 29.7684 10.2253C29.5979 9.92841 29.6989 9.55262 29.9958 9.3821L32.7874 7.77157C33.0842 7.60105 33.46 7.7021 33.6305 7.99894C33.8011 8.29578 33.7 8.67157 33.4032 8.84526L30.6116 10.4558C30.5168 10.5063 30.4095 10.5347 30.3053 10.5347Z" fill="#FFD243"/>
<path d="M35.14 16.5537H31.919C31.5779 16.5537 31.3 16.2758 31.3 15.9347C31.3 15.5937 31.5779 15.3158 31.919 15.3158H35.14C35.4811 15.3158 35.759 15.5937 35.759 15.9347C35.759 16.2758 35.4811 16.5537 35.14 16.5537Z" fill="#FFD243"/>
<path d="M33.0937 24.1832C32.9895 24.1832 32.8821 24.1579 32.7842 24.1011L29.9926 22.4905C29.6958 22.32 29.5947 21.9411 29.7653 21.6474C29.9358 21.3505 30.3147 21.2495 30.6084 21.42L33.4 23.0305C33.6968 23.2011 33.7979 23.58 33.6274 23.8737C33.5168 24.0726 33.3084 24.1832 33.0937 24.1832Z" fill="#FFD243"/>
<path d="M13.859 6.07264C13.6442 6.07264 13.4358 5.96211 13.3221 5.76316L11.7116 2.97159C11.5411 2.67474 11.6421 2.29895 11.939 2.12527C12.2358 1.95474 12.6116 2.0558 12.7821 2.35264L14.3926 5.14422C14.5632 5.44106 14.4621 5.81685 14.1653 5.98738C14.0705 6.04422 13.9663 6.07264 13.859 6.07264Z" fill="#FFD243"/>
<path d="M9.45368 10.5347C9.34947 10.5347 9.2421 10.5095 9.14421 10.4526L6.35263 8.84211C6.05579 8.67159 5.95474 8.29264 6.12526 7.9958C6.29579 7.69895 6.67474 7.5979 6.96842 7.76843L9.76 9.37896C10.0568 9.54948 10.1579 9.92843 9.98737 10.2221C9.87368 10.4242 9.66526 10.5347 9.45368 10.5347Z" fill="#FFD243"/>
<path d="M7.84 16.5537H4.61895C4.27789 16.5537 4 16.2758 4 15.9347C4 15.5937 4.27789 15.3158 4.61895 15.3158H7.84C8.18105 15.3158 8.45895 15.5937 8.45895 15.9347C8.45895 16.2758 8.18105 16.5537 7.84 16.5537Z" fill="#FFD243"/>
<path d="M6.6621 24.1832C6.44737 24.1832 6.23895 24.0726 6.12526 23.8737C5.95474 23.5769 6.05579 23.2011 6.35263 23.0305L9.14421 21.42C9.44105 21.2495 9.81684 21.3505 9.98737 21.6474C10.1579 21.9442 10.0568 22.32 9.76 22.4905L6.96842 24.1011C6.87368 24.1579 6.76947 24.1832 6.6621 24.1832Z" fill="#FFD243"/>
</g>
<defs>
<filter id="filter0_d" x="0" y="0" width="39.7589" height="44" filterUnits="userSpaceOnUse" color-interpolation-filters="sRGB">
<feFlood flood-opacity="0" result="BackgroundImageFix"/>
<feColorMatrix in="SourceAlpha" type="matrix" values="0 0 0 0 0 0 0 0 0 0 0 0 0 0 0 0 0 0 127 0"/>
<feOffset dy="4"/>
<feGaussianBlur stdDeviation="2"/>
<feColorMatrix type="matrix" values="0 0 0 0 0 0 0 0 0 0 0 0 0 0 0 0 0 0 0.25 0"/>
<feBlend mode="normal" in2="BackgroundImageFix" result="effect1_dropShadow"/>
<feBlend mode="normal" in="SourceGraphic" in2="effect1_dropShadow" result="shape"/>
</filter>
<clipPath id="clip0">
<rect width="31.7589" height="36" fill="white" transform="translate(4)"/>
</clipPath>
</defs>
</svg>
