<svg width="35" height="39" viewBox="0 0 35 39" fill="none" xmlns="http://www.w3.org/2000/svg">
<g clip-path="url(#clip0)">
<path d="M20.5252 8.71694L18.5379 8.43304L17.6441 6.62447C17.3392 6.00408 16.8345 6.00408 16.5295 6.62447L15.6358 8.42253L13.6484 8.70643C12.965 8.81158 12.8072 9.28475 13.3014 9.76844L14.742 11.1669L14.4055 13.1437C14.2898 13.8272 14.6894 14.1216 15.3098 13.7957L17.0868 12.8598L18.8639 13.7957C19.4737 14.1216 19.8838 13.8272 19.7681 13.1437L19.4317 11.1669L20.8722 9.76844C21.3559 9.28475 21.2087 8.81158 20.5252 8.71694Z" fill="#EF306A"/>
<path d="M33.1537 2.90213H27.2022V0H6.97142V2.90213H1.01995C0.452143 2.90213 0 3.35427 0 3.92208V9.37935C0 12.5023 2.53411 15.0364 5.65705 15.0364H7.69695C8.49609 16.8555 9.86304 18.5274 11.3562 19.7366L11.7978 20.0941C13.1437 21.1877 13.9218 22.828 13.9218 24.5524V26.8973H20.2308V24.216C20.2308 22.6913 20.9143 21.2507 22.1025 20.2939L22.807 19.7261C24.3001 18.5169 25.667 16.845 26.4662 15.0259H28.5061C31.629 15.0259 34.1631 12.4918 34.1631 9.36883V3.92208C34.1736 3.35427 33.7215 2.90213 33.1537 2.90213ZM5.65705 12.3971C3.98517 12.3971 2.62874 11.0407 2.62874 9.36883V5.53087H6.97142V11.8083C6.97142 12.0081 7.00296 12.2079 7.02399 12.4077H5.65705V12.3971ZM20.5462 15.5306C14.4686 18.8113 8.32785 12.681 11.6085 6.59288C12.0712 5.74117 12.7757 5.02615 13.6379 4.57401C19.7156 1.29334 25.8458 7.43408 22.5756 13.5117C22.113 14.3529 21.398 15.0679 20.5462 15.5306ZM31.5449 9.36883C31.5449 11.0407 30.1885 12.3971 28.5166 12.3971H27.1496C27.1707 12.1974 27.2022 11.9976 27.2022 11.7978V5.53087H31.5449V9.36883ZM27.6018 35.8455H25.4988V32.4597C25.4988 30.8404 24.1844 29.5365 22.5756 29.5365H11.598C9.9787 29.5365 8.67484 30.8509 8.67484 32.4597V35.8455H6.57185V39H27.6018V35.8455ZM21.7555 32.691V34.794H12.4077V32.691H21.7555V32.691Z" fill="#1E1E1E"/>
</g>
<defs>
<clipPath id="clip0">
<rect width="34.1736" height="39" fill="white"/>
</clipPath>
</defs>
</svg>
