<svg width="39" height="39" viewBox="0 0 39 39" fill="none" xmlns="http://www.w3.org/2000/svg">
<g clip-path="url(#clip0)">
<path d="M38.373 2.1592C38.2702 1.16183 37.4579 0.390677 36.4605 0.328984L31.4634 -4.28323e-05C30.8773 -0.0411712 30.2913 0.174753 29.88 0.596319L11.3105 19.1761C10.9095 19.5771 10.9095 20.2248 11.3105 20.6258L13.9325 23.2478L28.749 8.43128C29.2528 7.92745 30.0651 7.92745 30.5689 8.43128C31.0727 8.9351 31.0727 9.74739 30.5689 10.2512L15.7524 25.0677L18.3743 27.6896C18.7753 28.0906 19.4231 28.0906 19.8241 27.6896L38.3524 9.15102C38.7946 8.70889 39.0105 8.09197 38.9385 7.47504L38.373 2.1592Z" fill="#FDE2A7"/>
<path d="M25.366 28.1318C24.7594 27.5252 23.7826 27.5252 23.1862 28.1318L21.0064 30.3116C19.9988 31.309 18.3742 31.309 17.3665 30.3116L8.64732 21.5924C7.64995 20.595 7.64995 18.9602 8.64732 17.9525L10.8271 15.7727C11.4338 15.1661 11.4338 14.1893 10.8271 13.5929C10.2205 12.9863 9.24368 12.9863 8.64732 13.5929L6.46751 15.7727C4.26714 17.9731 4.26714 21.5615 6.46751 23.7722L8.09208 25.3968L3.46514 31.5146L2.5706 30.6201C2.1696 30.2191 1.52182 30.2191 1.12082 30.6201L0.318818 31.4221C-0.082184 31.8231 -0.082184 32.4709 0.318818 32.8719L6.13849 38.6915C6.53949 39.0925 7.18726 39.0925 7.58826 38.6915L8.39026 37.8895C8.79127 37.4885 8.79127 36.8407 8.39026 36.4397L7.74249 35.792L13.6547 30.9594L15.197 32.5017C16.2972 33.6019 17.747 34.1571 19.1967 34.1571C20.6465 34.1571 22.0963 33.6019 23.1965 32.5017L25.3763 30.3219C25.9624 29.7153 25.9624 28.7385 25.366 28.1318Z" fill="#EF306A"/>
</g>
<defs>
<clipPath id="clip0">
<rect width="38.9589" height="39" fill="white"/>
</clipPath>
</defs>
</svg>
