<svg width="36" height="39" viewBox="0 0 36 39" fill="none" xmlns="http://www.w3.org/2000/svg">
<g clip-path="url(#clip0)">
<path d="M31.3016 19.2666C31.063 18.779 31.063 18.2084 31.3016 17.7207L34.8499 10.6242C35.4206 9.47252 34.5905 8.12376 33.304 8.12376H28.324V14.6082C28.324 15.3241 27.743 15.9051 27.0271 15.9051C26.3112 15.9051 25.7302 15.3241 25.7302 14.6082V6.23549C25.7302 3.94259 23.8731 2.08545 21.5802 2.08545H7.25215C6.96165 2.08545 6.7334 2.3137 6.7334 2.6042V22.2961C6.7334 22.5866 6.96165 22.8149 7.25215 22.8149H20.1795C20.8747 22.846 21.4245 23.4063 21.4245 24.1014C21.4245 24.8173 20.8435 25.3983 20.1277 25.3983H14.5147V25.4087C14.5147 27.3177 16.0606 28.8636 17.9696 28.8636H33.304C34.5905 28.8636 35.4206 27.5148 34.8499 26.3632L31.3016 19.2666Z" fill="#FDE2A7"/>
<path d="M2.07502 0C0.933759 0 0 0.933759 0 2.07502V36.925C0 38.0662 0.933759 39 2.07502 39C3.21628 39 4.15004 38.0662 4.15004 36.925V2.07502C4.15004 0.933759 3.21628 0 2.07502 0Z" fill="#EF306A"/>
</g>
<defs>
<clipPath id="clip0">
<rect width="35.0367" height="39" fill="white"/>
</clipPath>
</defs>
</svg>
