<svg width="103" height="142" viewBox="0 0 103 142" fill="none" xmlns="http://www.w3.org/2000/svg">
<g clip-path="url(#clip0)">
<path d="M50.3327 1.08807e-05C22.0833 0.537754 0 24.772 0 52.9856V115.22C0 123.322 11.2209 125.366 14.0889 117.802C16.921 110.273 20.0757 103.641 25.6683 103.641C38.5024 103.641 38.5024 121.745 51.3365 121.745C64.1707 121.745 64.1707 103.641 76.9689 103.641C82.5256 103.641 85.6804 110.273 88.5125 117.766C91.3805 125.33 102.601 123.251 102.601 115.185V51.3007C102.601 22.6569 79.1199 -0.501883 50.3327 1.08807e-05ZM41.5138 57.7178C41.5138 62.0914 37.9288 65.6405 33.591 65.6405C29.2174 65.6405 25.6683 62.0556 25.6683 57.7178V48.0384C25.6683 43.6647 29.2532 40.1156 33.591 40.1156C37.9647 40.1156 41.5138 43.7006 41.5138 48.0384V57.7178V57.7178ZM76.9689 57.7178C76.9689 62.0914 73.384 65.6405 69.0462 65.6405C64.6726 65.6405 61.1235 62.0556 61.1235 57.7178V48.0384C61.1235 43.6647 64.7084 40.1156 69.0462 40.1156C73.4198 40.1156 76.9689 43.7006 76.9689 48.0384V57.7178Z" fill="#FDE2A7"/>
<path d="M76.9688 131.245H25.6323C22.6568 131.245 20.2549 133.647 20.2549 136.623C20.2549 139.598 22.6568 142 25.6323 142H76.9688C79.9444 142 82.3463 139.598 82.3463 136.623C82.3463 133.647 79.9444 131.245 76.9688 131.245Z" fill="#EF306A"/>
</g>
<defs>
<clipPath id="clip0">
<rect width="102.601" height="142" fill="white"/>
</clipPath>
</defs>
</svg>
