<svg width="36" height="39" viewBox="0 0 36 39" fill="none" xmlns="http://www.w3.org/2000/svg">
<path d="M17 35H15C14.26 35 13.62 35.4 13.28 36H5C3.35 36 2 34.65 2 33C2 32.45 1.55 32 1 32C0.45 32 0 32.45 0 33C0 35.76 2.24 38 5 38H13.28C13.63 38.6 14.26 39 15 39H17C18.1 39 19 38.1 19 37C19 35.9 18.1 35 17 35Z" fill="#EF306A"/>
<path d="M34 23.56H33.71V15.2C33.71 6.82 26.88 0 18.5 0C10.12 0 3.29 6.82 3.29 15.21V23.57H3C1.9 23.57 1 24.47 1 25.57V28.57C1 29.67 1.9 30.57 3 30.57H4V31.57C4 32.67 4.9 33.57 6 33.57H10C11.1 33.57 12 32.67 12 31.57V22.57C12 21.47 11.1 20.57 10 20.57H7.29V15.21C7.29 9.03 12.32 4 18.5 4C24.68 4 29.71 9.03 29.71 15.21V20.57H27C25.9 20.57 25 21.47 25 22.57V31.57C25 32.67 25.9 33.57 27 33.57H31C32.1 33.57 33 32.67 33 31.57V30.57H34C35.1 30.57 36 29.67 36 28.57V25.57C36 24.46 35.1 23.56 34 23.56Z" fill="#FDE2A7"/>
</svg>
