<svg width="135" height="142" viewBox="0 0 135 142" fill="none" xmlns="http://www.w3.org/2000/svg">
<g clip-path="url(#clip0)">
<path d="M33.4466 16.2793C23.864 13.1714 20.7931 10.0636 17.6852 0.517981C17.4632 -0.184989 16.5013 -0.184989 16.2793 0.517981C13.1714 10.0636 10.0635 13.1714 0.51795 16.2793C-0.18502 16.5013 -0.18502 17.4633 0.51795 17.6853C10.0635 20.7931 13.1714 23.864 16.2793 33.4466C16.5013 34.1496 17.4632 34.1496 17.6852 33.4466C20.7931 23.901 23.901 20.7931 33.4466 17.6853C34.1125 17.4633 34.1125 16.5013 33.4466 16.2793Z" fill="#EF306A"/>
<path d="M132.38 61.7504L109.034 34.4826C107.295 32.4477 104.742 31.2637 102.041 31.2637H36.221C33.5201 31.2637 31.0042 32.4477 29.2283 34.4826L5.8823 61.7504C2.92242 65.1913 2.92242 70.2971 5.91929 73.7379L62.1939 138.855C65.8568 143.11 72.4425 143.11 76.1053 138.855L132.38 73.7379C135.303 70.2601 135.303 65.1913 132.38 61.7504ZM49.0225 87.4644C48.7265 88.4263 47.3575 88.4263 47.0616 87.4644C42.6957 74.0709 38.3669 69.7421 24.9735 65.3763C24.0115 65.0803 24.0115 63.7114 24.9735 63.4154C38.3669 59.0496 42.6957 54.7207 47.0616 41.3273C47.3575 40.3653 48.7265 40.3653 49.0225 41.3273C53.3883 54.7207 57.7171 59.0496 71.1105 63.4154C72.0725 63.7114 72.0725 65.0803 71.1105 65.3763C57.7171 69.7421 53.3883 74.0709 49.0225 87.4644ZM91.8667 90.7572C85.3549 92.8661 83.283 94.975 81.1371 101.487C80.9891 101.968 80.3231 101.968 80.1752 101.487C78.0662 94.975 75.9573 92.9031 69.4456 90.7572C68.9646 90.6092 68.9646 89.9433 69.4456 89.7953C75.9573 87.6863 78.0292 85.5774 80.1752 79.0657C80.3231 78.5847 80.9891 78.5847 81.1371 79.0657C83.246 85.5774 85.3549 87.6493 91.8667 89.7953C92.3476 89.9433 92.3476 90.6092 91.8667 90.7572Z" fill="#788DAB"/>
</g>
<defs>
<clipPath id="clip0">
<rect width="134.563" height="142" fill="white"/>
</clipPath>
</defs>
</svg>
