<svg width="33" height="39" viewBox="0 0 33 39" fill="none" xmlns="http://www.w3.org/2000/svg">
<g clip-path="url(#clip0)">
<path d="M21.9 16.33C21.9 19.5 19.4 22.08 16.33 22.08C13.26 22.08 10.77 19.5 10.77 16.33C10.77 13.16 13.27 10.58 16.33 10.58C16.58 10.58 16.83 10.6 17.08 10.64L20.27 7.45C19.07 6.89 17.74 6.58 16.34 6.58C11.07 6.58 6.78 10.96 6.78 16.33C6.78 21.71 11.07 26.08 16.34 26.08C21.61 26.08 25.91 21.7 25.91 16.33C25.91 14.97 25.63 13.67 25.13 12.49L21.88 15.74C21.89 15.94 21.9 16.14 21.9 16.33ZM26.33 29.22C30.18 26.23 32.67 21.57 32.67 16.33C32.67 14.55 32.37 12.83 31.84 11.23L30.95 12.12C30.3 12.77 29.43 13.13 28.51 13.13C28.41 13.13 28.32 13.11 28.22 13.1C28.5 14.13 28.66 15.21 28.67 16.33C28.67 23.13 23.14 28.66 16.34 28.66C9.53 28.67 4 23.13 4 16.33C4 9.53 9.53 4 16.33 4C17.63 4 18.87 4.2 20.05 4.58C20.07 3.71 20.41 2.86 21.05 2.22L22.17 1.1C20.35 0.4 18.39 0 16.33 0C7.33 0 0 7.33 0 16.33C0 21.92 2.82 26.86 7.12 29.8L4.43 36.97C4.14 37.75 4.53 38.61 5.31 38.9C5.48 38.97 5.66 39 5.83 39C6.44 39 7.01 38.63 7.23 38.03L9.76 31.28C11.48 32.04 13.36 32.5 15.32 32.62V37.5C15.32 38.33 15.99 39 16.82 39C17.65 39 18.32 38.33 18.32 37.5V32.53C20.25 32.29 22.07 31.72 23.73 30.87L26.41 38.03C26.64 38.63 27.21 39 27.81 39C27.98 39 28.16 38.97 28.34 38.9C29.12 38.61 29.51 37.74 29.22 36.97L26.33 29.22Z" fill="#1E1E1E"/>
<path d="M32.3399 5.30998L29.4999 4.21998C29.2499 4.11998 29.0499 3.92998 28.9599 3.67998L27.8699 0.83998C27.7199 0.44998 27.3599 0.22998 26.9799 0.22998C26.7399 0.22998 26.4999 0.31998 26.3099 0.50998L22.8299 3.98998C22.5699 4.24998 22.4799 4.64998 22.6199 4.99998L23.5399 7.37998L17.5599 13.36C17.1899 13.21 16.7799 13.12 16.3599 13.12C14.5899 13.12 13.1499 14.56 13.1499 16.33C13.1499 18.1 14.5899 19.54 16.3599 19.54C18.1299 19.54 19.5699 18.1 19.5699 16.33C19.5699 15.9 19.4799 15.5 19.3299 15.13L25.0899 9.36998L28.1999 10.56C28.3099 10.6 28.4299 10.62 28.5399 10.62C28.7899 10.62 29.0299 10.52 29.2099 10.34L32.6899 6.85998C33.1499 6.37998 32.9799 5.55998 32.3399 5.30998Z" fill="#EF306A"/>
</g>
<defs>
<clipPath id="clip0">
<rect width="32.94" height="39" fill="white"/>
</clipPath>
</defs>
</svg>
