<svg width="36" height="39" viewBox="0 0 36 39" fill="none" xmlns="http://www.w3.org/2000/svg">
<g clip-path="url(#clip0)">
<path d="M1.9072 20.1015C2.22145 20.4157 2.64407 20.5783 3.05585 20.5783C3.46763 20.5783 3.89025 20.4157 4.2045 20.1015L6.50181 17.7933L8.79911 20.0906C9.11336 20.4049 9.53598 20.5674 9.94776 20.5674C10.3595 20.5674 10.7822 20.4049 11.0964 20.0906C11.7358 19.4513 11.7358 18.4218 11.0964 17.7933L8.79911 15.496L11.0964 13.1987C11.7358 12.5594 11.7358 11.5299 11.0964 10.9014C10.4571 10.2621 9.42762 10.2621 8.79911 10.9014L6.50181 13.1987L4.2045 10.9014C3.56516 10.2621 2.5357 10.2621 1.9072 10.9014C1.26785 11.5407 1.26785 12.5702 1.9072 13.1987L4.2045 15.496L1.9072 17.7933C1.26785 18.4327 1.26785 19.4621 1.9072 20.1015ZM19.928 20.8925C21.055 19.7764 21.6727 18.2701 21.6727 16.688V9.35181H18.4218V16.688C18.4218 17.4032 18.1292 18.0967 17.6307 18.606L8.69075 27.546C7.86719 27.1234 6.9461 26.8742 5.95999 26.8742C2.67658 26.8742 0 29.5507 0 32.8342C0 36.1176 2.67658 38.7942 5.95999 38.7942C9.2434 38.7942 11.92 36.1176 11.92 32.8342C11.92 31.7072 11.6057 30.6561 11.0531 29.7675L19.928 20.8925ZM5.95999 35.5432C4.46457 35.5432 3.2509 34.3296 3.2509 32.8342C3.2509 31.3387 4.46457 30.1251 5.95999 30.1251C7.4554 30.1251 8.66907 31.3387 8.66907 32.8342C8.66907 34.3296 7.4554 35.5432 5.95999 35.5432ZM25.0536 33.9178L27.3509 31.6205C27.9903 30.9811 27.9903 29.9517 27.3509 29.3232C26.7116 28.6838 25.6821 28.6838 25.0536 29.3232L22.7563 31.6205L20.459 29.3232C19.8197 28.6838 18.7902 28.6838 18.1617 29.3232C17.5224 29.9625 17.5224 30.992 18.1617 31.6205L20.459 33.9178L18.1617 36.2151C17.5224 36.8544 17.5224 37.8839 18.1617 38.5124C18.476 38.8267 18.8986 38.9892 19.3104 38.9892C19.7221 38.9892 20.1448 38.8267 20.459 38.5124L22.7563 36.2151L25.0536 38.5124C25.3679 38.8267 25.7905 38.9892 26.2023 38.9892C26.6141 38.9892 27.0367 38.8267 27.3509 38.5124C27.9903 37.8731 27.9903 36.8436 27.3509 36.2151L25.0536 33.9178Z" fill="#1E1E1E"/>
<path d="M20.9793 0.411805C20.4917 -0.140849 19.6356 -0.140849 19.1588 0.411805L15.4745 4.62714C14.7918 5.40736 15.3444 6.63187 16.3847 6.63187H23.7643C24.8046 6.63187 25.3572 5.40736 24.6745 4.62714L20.9793 0.411805ZM32.6392 17.6633L34.9365 15.366C35.5759 14.7266 35.5759 13.6972 34.9365 13.0687C34.2972 12.4293 33.2677 12.4293 32.6392 13.0687L30.3419 15.366L28.0446 13.0687C27.4053 12.4293 26.3758 12.4293 25.7473 13.0687C25.108 13.708 25.108 14.7374 25.7473 15.366L28.0446 17.6633L25.7473 19.9606C25.108 20.5999 25.108 21.6294 25.7473 22.2579C26.0616 22.5721 26.4842 22.7347 26.896 22.7347C27.3077 22.7347 27.7304 22.5721 28.0446 22.2579L30.3419 19.9606L32.6392 22.2579C32.9535 22.5721 33.3761 22.7347 33.7879 22.7347C34.1997 22.7347 34.6223 22.5721 34.9365 22.2579C35.5759 21.6185 35.5759 20.5891 34.9365 19.9606L32.6392 17.6633Z" fill="#EF306A"/>
</g>
<defs>
<clipPath id="clip0">
<rect width="35.4132" height="39" fill="white"/>
</clipPath>
</defs>
</svg>
