<svg width="29" height="39" viewBox="0 0 29 39" fill="none" xmlns="http://www.w3.org/2000/svg">
<path d="M13.8238 1.6991e-06C6.06513 0.147692 0 6.80359 0 14.5524V31.645C0 33.8702 3.0818 34.4315 3.86948 32.354C4.64731 30.2863 5.51376 28.4648 7.04973 28.4648C10.5746 28.4648 10.5746 33.437 14.0995 33.437C17.6243 33.437 17.6243 28.4648 21.1394 28.4648C22.6655 28.4648 23.5319 30.2863 24.3098 32.3441C25.0974 34.4216 28.1792 33.8505 28.1792 31.6352V14.0896C28.1792 6.22267 21.7301 -0.137842 13.8238 1.6991e-06ZM11.4017 15.8521C11.4017 17.0533 10.4171 18.028 9.2257 18.028C8.02449 18.028 7.04973 17.0434 7.04973 15.8521V13.1936C7.04973 11.9924 8.03433 11.0177 9.2257 11.0177C10.4269 11.0177 11.4017 12.0023 11.4017 13.1936V15.8521V15.8521ZM21.1394 15.8521C21.1394 17.0533 20.1548 18.028 18.9634 18.028C17.7622 18.028 16.7874 17.0434 16.7874 15.8521V13.1936C16.7874 11.9924 17.772 11.0177 18.9634 11.0177C20.1646 11.0177 21.1394 12.0023 21.1394 13.1936V15.8521Z" fill="#1E1E1E"/>
<path d="M21.1394 36.0463H7.03989C6.22267 36.0463 5.56299 36.7059 5.56299 37.5232C5.56299 38.3404 6.22267 39.0001 7.03989 39.0001H21.1394C21.9566 39.0001 22.6163 38.3404 22.6163 37.5232C22.6163 36.7059 21.9566 36.0463 21.1394 36.0463Z" fill="#EF306A"/>
</svg>
