<svg width="27" height="39" viewBox="0 0 27 39" fill="none" xmlns="http://www.w3.org/2000/svg">
<path d="M17.1506 13.307V9.8675H18.5602C18.8234 9.8675 19.0301 9.66075 19.0301 9.39762V5.63858C19.0301 5.37545 18.8234 5.1687 18.5602 5.1687H7.75301C7.48988 5.1687 7.28313 5.37545 7.28313 5.63858V9.39762C7.28313 9.66075 7.48988 9.8675 7.75301 9.8675H9.16265V13.307C3.85301 14.9986 0 19.9699 0 25.8434C0 33.1077 5.89229 39 13.1566 39C20.421 39 26.3133 33.1077 26.3133 25.8434C26.3133 19.9699 22.4602 14.9986 17.1506 13.307ZM13.1566 16.2109C16.6243 16.2109 19.8383 18.0904 21.5487 21.107C21.8682 21.6709 21.6708 22.3851 21.107 22.7046C20.919 22.808 20.7217 22.855 20.5243 22.855C20.1108 22.855 19.7161 22.6388 19.5 22.2629C18.2031 19.9793 15.7786 18.5603 13.1566 18.5603C12.5082 18.5603 11.9819 18.034 11.9819 17.3856C11.9819 16.7371 12.5082 16.2109 13.1566 16.2109ZM11.3429 36.021C7.3959 35.3444 4.15373 32.3183 3.15759 28.4371C2.67831 26.567 2.7347 24.7721 3.19518 23.1369C3.34554 22.5824 3.97518 22.2911 4.50145 22.5354C8.73976 24.5183 10.14 29.1326 16.5304 29.1326C18.7294 29.1326 20.3364 28.5781 21.6708 27.7793C22.3851 27.347 23.2872 28.0236 23.0523 28.8224C21.5957 33.6152 16.7747 36.9514 11.3429 36.021Z" fill="#FDE2A7"/>
<path d="M15.7411 0H10.5724C10.3093 0 10.1025 0.206747 10.1025 0.46988V2.3494C10.1025 2.61253 10.3093 2.81928 10.5724 2.81928H15.7411C16.0042 2.81928 16.211 2.61253 16.211 2.3494V0.46988C16.211 0.206747 16.0042 0 15.7411 0Z" fill="#EF306A"/>
</svg>
