<svg width="72" height="71" viewBox="0 0 72 71" fill="none" xmlns="http://www.w3.org/2000/svg">
<path d="M31.7172 7.10898C33.6609 3.88258 38.3391 3.88258 40.2828 7.10898L62.6102 44.1698C64.6179 47.5023 62.2179 51.75 58.3274 51.75H13.6726C9.78211 51.75 7.38215 47.5023 9.38979 44.1698L31.7172 7.10898Z" fill="#113234"/>
<path d="M38.7705 41.4033C38.7705 41.7158 38.7119 42.0088 38.5947 42.2822C38.4775 42.5557 38.3164 42.7949 38.1113 43C37.916 43.2051 37.6816 43.3662 37.4082 43.4834C37.1348 43.6006 36.8418 43.6592 36.5293 43.6592C36.2168 43.6592 35.9238 43.6006 35.6504 43.4834C35.377 43.3662 35.1377 43.2051 34.9326 43C34.7275 42.7949 34.5664 42.5557 34.4492 42.2822C34.332 42.0088 34.2734 41.7158 34.2734 41.4033C34.2734 41.1006 34.332 40.8125 34.4492 40.5391C34.5664 40.2656 34.7275 40.0312 34.9326 39.8359C35.1377 39.6406 35.377 39.4844 35.6504 39.3672C35.9238 39.25 36.2168 39.1914 36.5293 39.1914C36.8418 39.1914 37.1348 39.25 37.4082 39.3672C37.6816 39.4844 37.916 39.6406 38.1113 39.8359C38.3164 40.0312 38.4775 40.2656 38.5947 40.5391C38.7119 40.8125 38.7705 41.1006 38.7705 41.4033ZM39.1074 24.1914C39.1074 24.8164 39.0684 25.5293 38.9902 26.3301C38.9219 27.1211 38.8242 27.9658 38.6973 28.8643C38.5801 29.7627 38.4434 30.7002 38.2871 31.6768C38.1309 32.6436 37.9746 33.6104 37.8184 34.5771C37.7305 35.1436 37.6426 35.6953 37.5547 36.2324C37.4668 36.7695 37.3838 37.2969 37.3057 37.8145C37.2764 38.0098 37.1885 38.1709 37.042 38.2979C36.8955 38.415 36.7246 38.4736 36.5293 38.4736C36.3438 38.4736 36.1777 38.415 36.0312 38.2979C35.8945 38.1709 35.8115 38.0098 35.7822 37.8145C35.7041 37.2871 35.6162 36.7402 35.5186 36.1738C35.4209 35.6074 35.3281 35.0215 35.2402 34.416C35.084 33.4688 34.9277 32.5215 34.7715 31.5742C34.625 30.6172 34.4932 29.6992 34.376 28.8203C34.2588 27.9316 34.1611 27.0967 34.083 26.3154C34.0146 25.5244 33.9805 24.8164 33.9805 24.1914C33.9805 23.8398 34.0439 23.5127 34.1709 23.21C34.3076 22.8975 34.4932 22.624 34.7275 22.3896C34.9619 22.1553 35.2305 21.9746 35.5332 21.8477C35.8457 21.7109 36.1777 21.6426 36.5293 21.6426C36.8809 21.6426 37.2129 21.7109 37.5254 21.8477C37.8379 21.9746 38.1113 22.1553 38.3457 22.3896C38.5801 22.624 38.7656 22.8975 38.9023 23.21C39.0391 23.5127 39.1074 23.8398 39.1074 24.1914Z" fill="#01D309"/>
<path d="M5.84047 67C5.6718 67 5.52514 66.9377 5.40047 66.813C5.28314 66.6883 5.22447 66.5417 5.22447 66.373V59.597C5.22447 59.4283 5.28314 59.2817 5.40047 59.157C5.52514 59.0323 5.6718 58.97 5.84047 58.97H6.13747C6.30614 58.97 6.4528 59.0323 6.57747 59.157C6.70214 59.2817 6.76447 59.4283 6.76447 59.597V62.094C6.76447 62.1527 6.7938 62.182 6.85247 62.182H9.60247C9.66114 62.182 9.69047 62.1527 9.69047 62.094V59.597C9.69047 59.4283 9.7528 59.2817 9.87747 59.157C10.0021 59.0323 10.1488 58.97 10.3175 58.97H10.6145C10.7831 58.97 10.9261 59.0323 11.0435 59.157C11.1681 59.2817 11.2305 59.4283 11.2305 59.597V66.373C11.2305 66.5417 11.1681 66.6883 11.0435 66.813C10.9261 66.9377 10.7831 67 10.6145 67H10.3175C10.1488 67 10.0021 66.9377 9.87747 66.813C9.7528 66.6883 9.69047 66.5417 9.69047 66.373V63.458C9.69047 63.392 9.66114 63.359 9.60247 63.359H6.85247C6.7938 63.359 6.76447 63.392 6.76447 63.458V66.373C6.76447 66.5417 6.70214 66.6883 6.57747 66.813C6.4528 66.9377 6.30614 67 6.13747 67H5.84047ZM15.7306 60.334L14.7626 63.788C14.7553 63.81 14.7589 63.832 14.7736 63.854C14.7883 63.876 14.8066 63.887 14.8286 63.887H16.6546C16.6766 63.887 16.6949 63.876 16.7096 63.854C16.7243 63.832 16.7279 63.81 16.7206 63.788L15.7526 60.334C15.7526 60.3267 15.7489 60.323 15.7416 60.323C15.7343 60.323 15.7306 60.3267 15.7306 60.334ZM12.8816 67C12.7276 67 12.6066 66.9377 12.5186 66.813C12.4306 66.6883 12.4123 66.5527 12.4636 66.406L14.7406 59.564C14.8066 59.388 14.9129 59.245 15.0596 59.135C15.2136 59.025 15.3823 58.97 15.5656 58.97H15.9616C16.1523 58.97 16.3209 59.025 16.4676 59.135C16.6216 59.245 16.7279 59.388 16.7866 59.564L19.0636 66.406C19.1149 66.5527 19.0966 66.6883 19.0086 66.813C18.9206 66.9377 18.7996 67 18.6456 67H18.2496C18.0736 67 17.9086 66.945 17.7546 66.835C17.6079 66.7177 17.5089 66.571 17.4576 66.395L17.1056 65.152C17.0983 65.0933 17.0579 65.064 16.9846 65.064H14.4986C14.4326 65.064 14.3923 65.0933 14.3776 65.152L14.0256 66.395C13.9816 66.571 13.8826 66.7177 13.7286 66.835C13.5819 66.945 13.4169 67 13.2336 67H12.8816ZM20.7831 67C20.6144 67 20.4678 66.9377 20.3431 66.813C20.2184 66.6883 20.1561 66.5417 20.1561 66.373V59.597C20.1561 59.4283 20.2184 59.2817 20.3431 59.157C20.4678 59.0323 20.6144 58.97 20.7831 58.97H21.0581C21.2488 58.97 21.4248 59.0213 21.5861 59.124C21.7474 59.2267 21.8648 59.3623 21.9381 59.531L23.8631 63.689C23.8631 63.6963 23.8668 63.7 23.8741 63.7C23.8814 63.7 23.8851 63.6963 23.8851 63.689L25.8101 59.531C25.8834 59.3623 26.0008 59.2267 26.1621 59.124C26.3234 59.0213 26.4994 58.97 26.6901 58.97H27.0091C27.1778 58.97 27.3244 59.0323 27.4491 59.157C27.5738 59.2817 27.6361 59.4283 27.6361 59.597V66.373C27.6361 66.5417 27.5738 66.6883 27.4491 66.813C27.3244 66.9377 27.1778 67 27.0091 67H26.7671C26.5984 67 26.4518 66.9377 26.3271 66.813C26.2024 66.6883 26.1401 66.5417 26.1401 66.373V61.588C26.1401 61.5807 26.1364 61.577 26.1291 61.577C26.1218 61.577 26.1181 61.5807 26.1181 61.588L24.7981 64.415C24.7174 64.5837 24.5928 64.723 24.4241 64.833C24.2628 64.9357 24.0904 64.987 23.9071 64.987H23.8411C23.6578 64.987 23.4818 64.9357 23.3131 64.833C23.1518 64.723 23.0308 64.5837 22.9501 64.415L21.6301 61.588C21.6301 61.5807 21.6264 61.577 21.6191 61.577C21.6118 61.577 21.6081 61.5807 21.6081 61.588V66.373C21.6081 66.5417 21.5458 66.6883 21.4211 66.813C21.2964 66.9377 21.1498 67 20.9811 67H20.7831ZM32.1339 60.334L31.1659 63.788C31.1586 63.81 31.1622 63.832 31.1769 63.854C31.1916 63.876 31.2099 63.887 31.2319 63.887H33.0579C33.0799 63.887 33.0982 63.876 33.1129 63.854C33.1276 63.832 33.1312 63.81 33.1239 63.788L32.1559 60.334C32.1559 60.3267 32.1522 60.323 32.1449 60.323C32.1376 60.323 32.1339 60.3267 32.1339 60.334ZM29.2849 67C29.1309 67 29.0099 66.9377 28.9219 66.813C28.8339 66.6883 28.8156 66.5527 28.8669 66.406L31.1439 59.564C31.2099 59.388 31.3162 59.245 31.4629 59.135C31.6169 59.025 31.7856 58.97 31.9689 58.97H32.3649C32.5556 58.97 32.7242 59.025 32.8709 59.135C33.0249 59.245 33.1312 59.388 33.1899 59.564L35.4669 66.406C35.5182 66.5527 35.4999 66.6883 35.4119 66.813C35.3239 66.9377 35.2029 67 35.0489 67H34.6529C34.4769 67 34.3119 66.945 34.1579 66.835C34.0112 66.7177 33.9122 66.571 33.8609 66.395L33.5089 65.152C33.5016 65.0933 33.4612 65.064 33.3879 65.064H30.9019C30.8359 65.064 30.7956 65.0933 30.7809 65.152L30.4289 66.395C30.3849 66.571 30.2859 66.7177 30.1319 66.835C29.9852 66.945 29.8202 67 29.6369 67H29.2849ZM38.0774 60.224V62.611C38.0774 62.6697 38.1104 62.699 38.1764 62.699H38.7264C40.0318 62.699 40.6844 62.2333 40.6844 61.302C40.6844 60.4733 40.0794 60.059 38.8694 60.059C38.6494 60.059 38.4184 60.0773 38.1764 60.114C38.1104 60.1287 38.0774 60.1653 38.0774 60.224ZM37.1864 67C37.0178 67 36.8711 66.9377 36.7464 66.813C36.6218 66.6883 36.5594 66.5417 36.5594 66.373V59.652C36.5594 59.476 36.6181 59.3183 36.7354 59.179C36.8528 59.0397 36.9994 58.9627 37.1754 58.948C37.7988 58.8893 38.4001 58.86 38.9794 58.86C40.0574 58.86 40.8641 59.0617 41.3994 59.465C41.9348 59.861 42.2024 60.422 42.2024 61.148C42.2024 61.6687 42.0594 62.127 41.7734 62.523C41.4948 62.919 41.1171 63.1977 40.6404 63.359C40.6331 63.359 40.6294 63.3627 40.6294 63.37C40.6294 63.3847 40.6331 63.392 40.6404 63.392C40.9924 63.612 41.2931 64.0447 41.5424 64.69L42.2024 66.417C42.2538 66.5563 42.2354 66.6883 42.1474 66.813C42.0668 66.9377 41.9531 67 41.8064 67H41.4654C41.2748 67 41.1024 66.9487 40.9484 66.846C40.7944 66.736 40.6844 66.593 40.6184 66.417L40.0024 64.723C39.8704 64.371 39.7201 64.14 39.5514 64.03C39.3828 63.92 39.0931 63.865 38.6824 63.865H38.1764C38.1104 63.865 38.0774 63.898 38.0774 63.964V66.373C38.0774 66.5417 38.0151 66.6883 37.8904 66.813C37.7731 66.9377 37.6301 67 37.4614 67H37.1864ZM48.6817 62.985C48.6817 61.0783 47.985 60.125 46.5917 60.125C45.1984 60.125 44.5017 61.0783 44.5017 62.985C44.5017 64.8917 45.1984 65.845 46.5917 65.845C47.985 65.845 48.6817 64.8917 48.6817 62.985ZM49.2647 66.021C48.612 66.747 47.721 67.11 46.5917 67.11C45.4624 67.11 44.5677 66.747 43.9077 66.021C43.255 65.295 42.9287 64.283 42.9287 62.985C42.9287 61.687 43.255 60.675 43.9077 59.949C44.5677 59.223 45.4624 58.86 46.5917 58.86C47.721 58.86 48.612 59.223 49.2647 59.949C49.9247 60.675 50.2547 61.687 50.2547 62.985C50.2547 64.283 49.9247 65.295 49.2647 66.021ZM53.6164 63.612C52.7364 63.3187 52.0984 62.963 51.7024 62.545C51.3137 62.127 51.1194 61.621 51.1194 61.027C51.1194 60.3597 51.3431 59.8317 51.7904 59.443C52.2377 59.0543 52.8647 58.86 53.6714 58.86C54.3534 58.86 54.9474 58.937 55.4534 59.091C55.6294 59.1423 55.7687 59.2487 55.8714 59.41C55.9814 59.564 56.0364 59.7363 56.0364 59.927V60.026C56.0364 60.1653 55.9741 60.2753 55.8494 60.356C55.7247 60.4293 55.5964 60.4403 55.4644 60.389C54.9144 60.1763 54.3534 60.07 53.7814 60.07C53.4147 60.07 53.1361 60.1543 52.9454 60.323C52.7547 60.4917 52.6594 60.7263 52.6594 61.027C52.6594 61.555 53.0041 61.9327 53.6934 62.16C54.6834 62.4753 55.3691 62.8347 55.7504 63.238C56.1391 63.6413 56.3334 64.162 56.3334 64.8C56.3334 66.34 55.3837 67.11 53.4844 67.11C52.8904 67.11 52.3514 67.0183 51.8674 66.835C51.6914 66.769 51.5521 66.6553 51.4494 66.494C51.3541 66.3327 51.3064 66.153 51.3064 65.955V65.823C51.3064 65.6837 51.3651 65.5847 51.4824 65.526C51.5997 65.46 51.7207 65.4563 51.8454 65.515C52.3294 65.757 52.8391 65.878 53.3744 65.878C54.3057 65.878 54.7714 65.526 54.7714 64.822C54.7714 64.536 54.6834 64.3013 54.5074 64.118C54.3314 63.9273 54.0344 63.7587 53.6164 63.612ZM60.3429 60.334L59.3749 63.788C59.3676 63.81 59.3712 63.832 59.3859 63.854C59.4006 63.876 59.4189 63.887 59.4409 63.887H61.2669C61.2889 63.887 61.3072 63.876 61.3219 63.854C61.3366 63.832 61.3402 63.81 61.3329 63.788L60.3649 60.334C60.3649 60.3267 60.3612 60.323 60.3539 60.323C60.3466 60.323 60.3429 60.3267 60.3429 60.334ZM57.4939 67C57.3399 67 57.2189 66.9377 57.1309 66.813C57.0429 66.6883 57.0246 66.5527 57.0759 66.406L59.3529 59.564C59.4189 59.388 59.5252 59.245 59.6719 59.135C59.8259 59.025 59.9946 58.97 60.1779 58.97H60.5739C60.7646 58.97 60.9332 59.025 61.0799 59.135C61.2339 59.245 61.3402 59.388 61.3989 59.564L63.6759 66.406C63.7272 66.5527 63.7089 66.6883 63.6209 66.813C63.5329 66.9377 63.4119 67 63.2579 67H62.8619C62.6859 67 62.5209 66.945 62.3669 66.835C62.2202 66.7177 62.1212 66.571 62.0699 66.395L61.7179 65.152C61.7106 65.0933 61.6702 65.064 61.5969 65.064H59.1109C59.0449 65.064 59.0046 65.0933 58.9899 65.152L58.6379 66.395C58.5939 66.571 58.4949 66.7177 58.3409 66.835C58.1942 66.945 58.0292 67 57.8459 67H57.4939ZM65.3844 67C65.2157 67 65.0691 66.9377 64.9444 66.813C64.8271 66.6883 64.7684 66.5417 64.7684 66.373V59.597C64.7684 59.4283 64.8271 59.2817 64.9444 59.157C65.0691 59.0323 65.2157 58.97 65.3844 58.97H65.6264C66.0444 58.97 66.3524 59.1533 66.5504 59.52L69.2674 64.426C69.2674 64.4333 69.2711 64.437 69.2784 64.437C69.2857 64.437 69.2894 64.4333 69.2894 64.426V59.597C69.2894 59.4283 69.3517 59.2817 69.4764 59.157C69.6011 59.0323 69.7477 58.97 69.9164 58.97H70.1584C70.3271 58.97 70.4701 59.0323 70.5874 59.157C70.7121 59.2817 70.7744 59.4283 70.7744 59.597V66.373C70.7744 66.5417 70.7121 66.6883 70.5874 66.813C70.4701 66.9377 70.3271 67 70.1584 67H69.9164C69.4984 67 69.1904 66.8167 68.9924 66.45L66.2754 61.544C66.2754 61.5367 66.2717 61.533 66.2644 61.533C66.2571 61.533 66.2534 61.5367 66.2534 61.544V66.373C66.2534 66.5417 66.1911 66.6883 66.0664 66.813C65.9417 66.9377 65.7951 67 65.6264 67H65.3844Z" fill="black"/>
</svg>
