<svg width="253" height="82" viewBox="0 0 253 82" fill="none" xmlns="http://www.w3.org/2000/svg">
<ellipse cx="177.5" cy="41" rx="75.5" ry="41" fill="#FFD243"/>
<ellipse cx="75.5" cy="41" rx="75.5" ry="41" fill="#366E9D"/>
<path d="M56.8535 34.8457C56.8535 35.7734 56.4824 36.5527 55.7402 37.1836C55.0352 37.7773 54.1631 38.0742 53.124 38.0742H29.5781C29.0957 38.0742 28.7061 38.167 28.4092 38.3525C28.1123 38.5381 27.8896 38.7422 27.7412 38.9648C27.5928 39.1504 27.5186 39.3174 27.5186 39.4658C27.5186 39.6514 27.5928 39.8555 27.7412 40.0781C27.8896 40.2637 28.1123 40.4492 28.4092 40.6348C28.7061 40.7832 29.0957 40.876 29.5781 40.9131H47.7803C50.1182 40.9502 52.0479 41.4141 53.5693 42.3047C55.0908 43.1582 56.167 44.1787 56.7979 45.3662C57.4658 46.5166 57.7998 47.6855 57.7998 48.873C57.7998 50.0234 57.4658 51.1924 56.7979 52.3799C56.1299 53.5303 55.0352 54.5508 53.5137 55.4414C52.0293 56.2949 50.1182 56.7217 47.7803 56.7217C47.3721 56.7588 47.0752 56.7773 46.8896 56.7773H25.292C24.2529 56.7773 23.3623 56.4805 22.6201 55.8867C21.915 55.2559 21.5625 54.4951 21.5625 53.6045C21.5625 52.6768 21.9336 51.8975 22.6758 51.2666C23.3809 50.6729 24.2529 50.376 25.292 50.376H48.2256C48.7822 50.4131 49.2275 50.3389 49.5615 50.1533C49.9326 49.9678 50.2109 49.7637 50.3965 49.541C50.582 49.3184 50.6748 49.0957 50.6748 48.873C50.6748 48.7617 50.582 48.5762 50.3965 48.3164C50.2109 48.0195 49.9326 47.7969 49.5615 47.6484C49.2275 47.4629 48.7822 47.3516 48.2256 47.3145H29.9678C27.8154 47.2773 26.0342 46.832 24.624 45.9785C23.2139 45.0879 22.2119 44.0674 21.6182 42.917C21.0244 41.7666 20.7275 40.6162 20.7275 39.4658C20.7275 38.3154 21.0244 37.1836 21.6182 36.0703C22.249 34.9199 23.251 33.9365 24.624 33.1201C26.0342 32.2666 27.8154 31.8027 29.9678 31.7285C30.3389 31.6914 30.6172 31.6729 30.8027 31.6729H53.124C54.1631 31.6729 55.0352 31.9883 55.7402 32.6191C56.4824 33.2129 56.8535 33.9551 56.8535 34.8457ZM77.1754 57.835C75.2457 57.835 73.3345 57.6123 71.442 57.167C69.5865 56.7217 67.8052 56.0723 66.0982 55.2188C64.3912 54.3281 62.8882 53.1592 61.5894 51.7119C60.2906 50.2646 59.5855 48.5391 59.4742 46.5352V44.1973V34.6787C59.4742 33.6396 59.8453 32.7861 60.5875 32.1182C61.3668 31.4131 62.2759 31.0605 63.315 31.0605C65.5416 31.2461 66.7476 32.4521 66.9332 34.6787V37.1279V44.8096C67.0074 45.96 67.4341 46.9248 68.2134 47.7041C69.0298 48.4463 69.9205 49.04 70.8853 49.4854C71.8873 49.9307 72.9078 50.2646 73.9468 50.4873C75.023 50.71 76.0992 50.8213 77.1754 50.8213C78.2515 50.8213 79.3091 50.71 80.3482 50.4873C81.4244 50.2646 82.4449 49.9307 83.4097 49.4854C84.4117 49.04 85.3023 48.4463 86.0816 47.7041C86.898 46.9248 87.3433 45.96 87.4175 44.8096V37.1279V34.6787C87.4175 33.6396 87.7886 32.7861 88.5308 32.1182C89.3101 31.4131 90.2193 31.0605 91.2584 31.0605C93.4849 31.2461 94.7095 32.4521 94.9322 34.6787V44.1973V46.5352C94.8209 48.5391 94.0972 50.2646 92.7613 51.7119C91.4625 53.1592 89.9595 54.3281 88.2525 55.2188C86.5455 56.0723 84.7457 56.7217 82.8531 57.167C80.9976 57.6123 79.105 57.835 77.1754 57.835ZM101.338 23.1562C102.34 23.1934 103.193 23.5645 103.899 24.2695C104.604 24.9375 104.975 25.7725 105.012 26.7744V54.0498C104.789 56.2764 103.565 57.4824 101.338 57.668C100.299 57.668 99.3898 57.334 98.6105 56.666C97.8683 55.9609 97.4972 55.0889 97.4972 54.0498V26.7744C97.5343 25.7354 97.9239 24.8818 98.6661 24.2139C99.4083 23.5088 100.299 23.1562 101.338 23.1562ZM111.362 31.0605C112.364 31.0977 113.217 31.4688 113.923 32.1738C114.628 32.8418 114.999 33.6768 115.036 34.6787V53.9385C114.813 56.165 113.589 57.3711 111.362 57.5566C110.323 57.5566 109.414 57.2227 108.634 56.5547C107.892 55.8496 107.521 54.9775 107.521 53.9385V34.6787C107.558 33.6396 107.948 32.7861 108.69 32.1182C109.432 31.4131 110.323 31.0605 111.362 31.0605ZM106.686 23.8242C106.686 22.7852 107.132 21.8945 108.022 21.1523C108.913 20.4102 109.989 20.0391 111.251 20.0391C112.512 20.0391 113.589 20.4102 114.479 21.1523C115.37 21.8945 115.815 22.7852 115.815 23.8242C115.815 24.9004 115.37 25.8096 114.479 26.5518C113.589 27.2939 112.512 27.665 111.251 27.665C109.989 27.665 108.913 27.2939 108.022 26.5518C107.132 25.8096 106.686 24.9004 106.686 23.8242Z" fill="white"/>
<path d="M162.021 53.9385C161.799 56.165 160.574 57.3711 158.348 57.5566C157.309 57.5566 156.399 57.2227 155.62 56.5547C154.878 55.8496 154.507 54.9775 154.507 53.9385V27.665C154.544 26.626 154.934 25.7725 155.676 25.1045C156.418 24.3994 157.309 24.0469 158.348 24.0469H181.727C184.992 24.1582 187.46 24.8818 189.13 26.2178C190.8 27.5166 192.006 29.001 192.748 30.6709C193.49 32.3408 193.861 34.0293 193.861 35.7363C193.861 37.5176 193.49 39.2432 192.748 40.9131C192.043 42.583 190.837 44.0859 189.13 45.4219C187.46 46.7207 185.326 47.3516 182.729 47.3145H168.701C167.662 47.3145 166.79 46.9434 166.085 46.2012C165.343 45.4961 164.972 44.624 164.972 43.585C164.972 42.5459 165.324 41.6738 166.029 40.9688C166.771 40.2266 167.662 39.8555 168.701 39.8555H183.062C183.768 39.8555 184.343 39.6328 184.788 39.1875C185.271 38.7051 185.623 38.167 185.846 37.5732C186.068 36.9424 186.18 36.3115 186.18 35.6807C186.18 35.0869 186.068 34.4932 185.846 33.8994C185.623 33.2686 185.271 32.7305 184.788 32.2852C184.343 31.8027 183.768 31.543 183.062 31.5059H163.469C162.504 31.543 162.021 32.0254 162.021 32.9531V53.9385ZM198.931 23.1562C199.97 23.1562 200.861 23.5088 201.603 24.2139C202.345 24.8818 202.735 25.7354 202.772 26.7744V27.832C202.735 29.3535 202.828 30.7637 203.05 32.0625C203.31 33.3242 203.904 34.4561 204.832 35.458C205.759 36.46 206.928 36.998 208.338 37.0723H223.98V26.8857C223.98 25.8467 224.351 24.9932 225.093 24.3252C225.873 23.6201 226.782 23.2676 227.821 23.2676C230.047 23.4531 231.272 24.6592 231.495 26.8857V39.7998C231.495 42.7686 231.086 45.5703 230.27 48.2051C229.528 50.543 228.303 52.5283 226.596 54.1611C224.926 55.7568 222.793 56.6289 220.195 56.7773H200.156C199.154 56.7402 198.3 56.3877 197.595 55.7197C196.927 55.0146 196.575 54.1611 196.538 53.1592C196.538 52.1201 196.872 51.2295 197.54 50.4873C198.245 49.7451 199.117 49.3555 200.156 49.3184H218.302C219.712 49.2441 220.881 48.7061 221.809 47.7041C222.663 46.7764 223.238 45.7188 223.535 44.5312H206.446C203.848 44.3828 201.696 43.5107 199.989 41.915C198.319 40.2822 197.113 38.2969 196.371 35.959C195.666 33.6211 195.294 31.1348 195.257 28.5V26.7744C195.294 25.7725 195.666 24.9375 196.371 24.2695C197.076 23.5645 197.929 23.1934 198.931 23.1562Z" fill="white"/>
<circle cx="133" cy="50" r="7" fill="#FFD243"/>
</svg>
