<svg width="41" height="27" viewBox="0 0 41 27" fill="none" xmlns="http://www.w3.org/2000/svg">
<path d="M37 5.75H4C1.79 5.75 0 7.54 0 9.75V22.75C0 24.96 1.79 26.75 4 26.75H37C39.21 26.75 41 24.96 41 22.75V9.75C41 7.54 39.21 5.75 37 5.75ZM19.5 9.75H21.5C22.33 9.75 23 10.42 23 11.25C23 12.08 22.33 12.75 21.5 12.75H19.5C18.67 12.75 18 12.08 18 11.25C18 10.42 18.67 9.75 19.5 9.75ZM19.5 14.75H21.5C22.33 14.75 23 15.42 23 16.25C23 17.08 22.33 17.75 21.5 17.75H19.5C18.67 17.75 18 17.08 18 16.25C18 15.42 18.67 14.75 19.5 14.75ZM12.5 9.75H14.5C15.33 9.75 16 10.42 16 11.25C16 12.08 15.33 12.75 14.5 12.75H12.5C11.67 12.75 11 12.08 11 11.25C11 10.42 11.67 9.75 12.5 9.75ZM12.5 14.75H14.5C15.33 14.75 16 15.42 16 16.25C16 17.08 15.33 17.75 14.5 17.75H12.5C11.67 17.75 11 17.08 11 16.25C11 15.42 11.67 14.75 12.5 14.75ZM7.5 22.75H5.5C4.67 22.75 4 22.08 4 21.25C4 20.42 4.67 19.75 5.5 19.75H7.5C8.33 19.75 9 20.42 9 21.25C9 22.08 8.33 22.75 7.5 22.75ZM7.5 17.75H5.5C4.67 17.75 4 17.08 4 16.25C4 15.42 4.67 14.75 5.5 14.75H7.5C8.33 14.75 9 15.42 9 16.25C9 17.08 8.33 17.75 7.5 17.75ZM7.5 12.75H5.5C4.67 12.75 4 12.08 4 11.25C4 10.42 4.67 9.75 5.5 9.75H7.5C8.33 9.75 9 10.42 9 11.25C9 12.08 8.33 12.75 7.5 12.75ZM28.5 22.75H12.5C11.67 22.75 11 22.08 11 21.25C11 20.42 11.67 19.75 12.5 19.75H28.5C29.33 19.75 30 20.42 30 21.25C30 22.08 29.33 22.75 28.5 22.75ZM28.5 17.75H26.5C25.67 17.75 25 17.08 25 16.25C25 15.42 25.67 14.75 26.5 14.75H28.5C29.33 14.75 30 15.42 30 16.25C30 17.08 29.33 17.75 28.5 17.75ZM28.5 12.75H26.5C25.67 12.75 25 12.08 25 11.25C25 10.42 25.67 9.75 26.5 9.75H28.5C29.33 9.75 30 10.42 30 11.25C30 12.08 29.33 12.75 28.5 12.75ZM35.5 22.75H33.5C32.67 22.75 32 22.08 32 21.25C32 20.42 32.67 19.75 33.5 19.75H35.5C36.33 19.75 37 20.42 37 21.25C37 22.08 36.33 22.75 35.5 22.75ZM35.5 17.75H33.5C32.67 17.75 32 17.08 32 16.25C32 15.42 32.67 14.75 33.5 14.75H35.5C36.33 14.75 37 15.42 37 16.25C37 17.08 36.33 17.75 35.5 17.75ZM35.5 12.75H33.5C32.67 12.75 32 12.08 32 11.25C32 10.42 32.67 9.75 33.5 9.75H35.5C36.33 9.75 37 10.42 37 11.25C37 12.08 36.33 12.75 35.5 12.75Z" fill="#01D309"/>
<path d="M34.5 0.25H6.5C5.67 0.25 5 0.92 5 1.75C5 2.58 5.67 3.25 6.5 3.25H34.5C35.33 3.25 36 2.58 36 1.75C36 0.92 35.33 0.25 34.5 0.25Z" fill="#EF306A"/>
</svg>
