<svg width="33" height="39" viewBox="0 0 33 39" fill="none" xmlns="http://www.w3.org/2000/svg">
<path d="M30.5 0.25H2.5C1.4 0.25 0.5 1.15 0.5 2.25V22.25C0.5 23.35 1.4 24.25 2.5 24.25H30.5C31.6 24.25 32.5 23.35 32.5 22.25V2.25C32.5 1.15 31.6 0.25 30.5 0.25ZM7 19C5.62 19 4.5 17.88 4.5 16.5C4.5 15.12 5.62 14 7 14C8.38 14 9.5 15.12 9.5 16.5C9.5 17.88 8.38 19 7 19ZM7 11C5.62 11 4.5 9.88 4.5 8.5C4.5 7.12 5.62 6 7 6C8.38 6 9.5 7.12 9.5 8.5C9.5 9.88 8.38 11 7 11ZM23 18.75H15C14.31 18.75 13.75 18.19 13.75 17.5C13.75 16.81 14.31 16.25 15 16.25H23C23.69 16.25 24.25 16.81 24.25 17.5C24.25 18.19 23.69 18.75 23 18.75ZM27 13.75H15C14.31 13.75 13.75 13.19 13.75 12.5C13.75 11.81 14.31 11.25 15 11.25H27C27.69 11.25 28.25 11.81 28.25 12.5C28.25 13.19 27.69 13.75 27 13.75ZM27 8.75H15C14.31 8.75 13.75 8.19 13.75 7.5C13.75 6.81 14.31 6.25 15 6.25H27C27.69 6.25 28.25 6.81 28.25 7.5C28.25 8.19 27.69 8.75 27 8.75Z" fill="#01D309"/>
<path d="M14.17 24.23L14.15 24.25H14.19L14.17 24.23ZM24.27 35.69L18 29.41V28.07C18 27.24 17.33 26.57 16.5 26.57C15.67 26.57 15 27.24 15 28.07V29.41L8.72998 35.68C8.13998 36.27 8.13998 37.22 8.72998 37.8C9.01998 38.09 9.40998 38.24 9.78998 38.24C10.17 38.24 10.56 38.09 10.85 37.8L15 33.66V37.25C15 38.08 15.67 38.75 16.5 38.75C17.33 38.75 18 38.08 18 37.25V33.66L22.15 37.81C22.44 38.1 22.83 38.25 23.21 38.25C23.59 38.25 23.98 38.1 24.27 37.81C24.86 37.23 24.86 36.27 24.27 35.69Z" fill="#EF306A"/>
</svg>
