<svg width="45" height="33" viewBox="0 0 45 33" fill="none" xmlns="http://www.w3.org/2000/svg">
<path d="M43.68 25.89H43.7L41.5 25.14V17.7C41.33 17.72 41.17 17.75 41 17.75H37.5V23.77H7.5V4.77002H22.5V2.25002C22.5 1.73002 22.61 1.23002 22.77 0.77002H5.5C4.4 0.77002 3.5 1.67002 3.5 2.77002V25.14L1.3 25.89H1.32C0.55 26.17 0 26.9 0 27.76V30.76C0 31.86 0.9 32.76 2 32.76H43C44.1 32.76 45 31.86 45 30.76V27.76C45 26.9 44.45 26.17 43.68 25.89ZM25 29.7H20C19.17 29.7 18.5 29.03 18.5 28.2C18.5 27.37 19.17 26.7 20 26.7H25C25.83 26.7 26.5 27.37 26.5 28.2C26.5 29.03 25.83 29.7 25 29.7ZM14.81 14.73C16.95 15.7 19.03 14.16 19.03 12.13C19.03 10.53 17.73 9.24002 16.14 9.24002C14.11 9.24002 12.58 11.32 13.55 13.46C13.8 14.02 14.25 14.48 14.81 14.73ZM11.28 19.84V20.52C11.28 20.92 11.58 21.24 11.95 21.24H20.34C20.71 21.24 21.01 20.92 21.01 20.52V19.84C21.01 18.54 20.03 17.48 18.82 17.48H13.47C12.26 17.49 11.28 18.54 11.28 19.84Z" fill="#01D309"/>
<path d="M41 0.23999H27C25.9 0.23999 25 1.13999 25 2.23999V16.24C25 16.83 25.49 17.24 26 17.24C26.2 17.24 26.41 17.18 26.6 17.04L28.47 15.64C28.82 15.38 29.24 15.24 29.67 15.24H41C42.1 15.24 43 14.34 43 13.24V2.23999C43 1.13999 42.1 0.23999 41 0.23999ZM37.61 8.08999L33.52 10.6C32.86 11.01 32 10.53 32 9.74999V4.73999C32 3.95999 32.86 3.47999 33.52 3.88999L37.61 6.39999C38.25 6.77999 38.25 7.69999 37.61 8.08999Z" fill="#EF306A"/>
</svg>
