<svg width="165" height="98" viewBox="0 0 165 98" fill="none" xmlns="http://www.w3.org/2000/svg">
<path d="M57.7243 94.108C56.3963 94.108 55.4243 93.98 54.8083 93.724C54.4963 93.588 54.3403 93.456 54.3403 93.328C54.3403 93 54.4363 92.616 54.6283 92.176C54.8203 91.736 54.9883 91.516 55.1323 91.516C55.2123 91.516 55.4803 91.604 55.9363 91.78C56.4003 91.956 56.7883 92.044 57.1003 92.044C57.4203 92.044 57.6283 92.024 57.7243 91.984C57.8283 91.944 57.8803 91.868 57.8803 91.756C57.8803 91.636 57.8003 91.544 57.6403 91.48C57.4803 91.408 57.2803 91.36 57.0403 91.336C56.8003 91.312 56.5403 91.264 56.2603 91.192C55.9883 91.12 55.7323 91.028 55.4923 90.916C55.2523 90.804 55.0523 90.62 54.8923 90.364C54.7323 90.1 54.6523 89.82 54.6523 89.524C54.6523 89.22 54.6603 88.996 54.6763 88.852C54.6923 88.7 54.7563 88.492 54.8683 88.228C54.9883 87.956 55.1523 87.736 55.3603 87.568C55.5763 87.4 55.9043 87.248 56.3443 87.112C56.7923 86.976 57.2923 86.908 57.8443 86.908C58.3963 86.908 58.8563 86.928 59.2243 86.968C59.6003 87 59.8923 87.044 60.1003 87.1C60.3163 87.156 60.4923 87.22 60.6283 87.292C60.8603 87.412 60.9763 87.544 60.9763 87.688C60.9763 88 60.8643 88.36 60.6403 88.768C60.4163 89.176 60.2363 89.38 60.1003 89.38C59.9723 89.38 59.6883 89.312 59.2483 89.176C58.8083 89.032 58.4843 88.96 58.2763 88.96C57.9403 88.96 57.7723 89.056 57.7723 89.248C57.7723 89.368 57.8843 89.46 58.1083 89.524C58.3403 89.58 58.6163 89.64 58.9363 89.704C59.2563 89.768 59.5763 89.86 59.8963 89.98C60.2243 90.092 60.5003 90.3 60.7243 90.604C60.9563 90.908 61.0723 91.292 61.0723 91.756C61.0723 93.324 59.9563 94.108 57.7243 94.108ZM69.9683 94.108C69.0723 94.108 68.4443 93.876 68.0843 93.412C67.7323 92.948 67.5563 92.14 67.5563 90.988V87.724C67.5563 87.564 67.7923 87.412 68.2643 87.268C68.7363 87.116 69.2323 87.04 69.7523 87.04C70.4483 87.04 70.7963 87.22 70.7963 87.58V90.628C70.7963 91.236 70.8203 91.68 70.8683 91.96C70.9163 92.232 71.0363 92.368 71.2283 92.368C71.4843 92.368 71.6123 92.26 71.6123 92.044V87.724C71.6123 87.556 71.8603 87.4 72.3563 87.256C72.8523 87.112 73.3923 87.04 73.9763 87.04C74.5603 87.04 74.8523 87.196 74.8523 87.508V93.688C74.8523 93.8 74.6003 93.88 74.0963 93.928C73.5923 93.976 73.0963 94 72.6083 94C72.1203 94 71.8723 93.936 71.8643 93.808L71.7443 93.028H71.6483C71.5763 93.316 71.4323 93.552 71.2163 93.736C71.1043 93.832 70.9363 93.92 70.7123 94C70.4963 94.072 70.2483 94.108 69.9683 94.108ZM84.6891 85.192V93.712C84.6891 93.8 84.4611 93.872 84.0051 93.928C83.5491 93.976 83.0771 94 82.5891 94C82.1091 94 81.7971 93.98 81.6531 93.94C81.5171 93.892 81.4491 93.816 81.4491 93.712V85.408C81.4491 85.232 81.6731 85.06 82.1211 84.892C82.5771 84.724 83.0651 84.64 83.5851 84.64C84.3211 84.64 84.6891 84.824 84.6891 85.192ZM94.5872 87.796V93.712C94.5872 93.8 94.3552 93.872 93.8912 93.928C93.4352 93.976 92.9632 94 92.4752 94C91.9952 94 91.6832 93.98 91.5392 93.94C91.4032 93.892 91.3352 93.816 91.3352 93.712V88.012C91.3352 87.836 91.5592 87.664 92.0072 87.496C92.4632 87.32 92.9592 87.232 93.4952 87.232C94.2232 87.232 94.5872 87.42 94.5872 87.796ZM92.9552 84.64C93.4832 84.64 93.8952 84.72 94.1912 84.88C94.4952 85.032 94.6472 85.312 94.6472 85.72C94.6472 86.44 94.0872 86.8 92.9672 86.8C91.8472 86.8 91.2872 86.44 91.2872 85.72C91.2872 85 91.8432 84.64 92.9552 84.64ZM101.243 95.452V87.82C101.243 87.652 101.467 87.48 101.915 87.304C102.363 87.128 102.847 87.04 103.367 87.04C103.607 87.04 103.795 87.068 103.931 87.124C104.067 87.18 104.151 87.236 104.183 87.292C104.215 87.348 104.275 87.588 104.363 88.012H104.459C104.475 87.94 104.547 87.828 104.675 87.676C104.803 87.524 104.931 87.4 105.059 87.304C105.195 87.208 105.387 87.124 105.635 87.052C105.883 86.972 106.171 86.932 106.499 86.932C106.835 86.932 107.139 87.008 107.411 87.16C107.683 87.304 107.883 87.476 108.011 87.676C108.147 87.868 108.251 88.116 108.323 88.42C108.403 88.716 108.447 88.956 108.455 89.14C108.471 89.316 108.479 89.576 108.479 89.92C108.479 90.256 108.467 90.592 108.443 90.928C108.419 91.256 108.375 91.592 108.311 91.936C108.247 92.28 108.155 92.576 108.035 92.824C107.915 93.072 107.763 93.296 107.579 93.496C107.211 93.896 106.671 94.096 105.959 94.096C105.703 94.096 105.475 94.06 105.275 93.988C105.083 93.908 104.939 93.816 104.843 93.712C104.643 93.496 104.527 93.304 104.495 93.136L104.483 93.016H104.387L104.555 94.096V95.452C104.555 95.54 104.323 95.608 103.859 95.656C103.403 95.712 102.931 95.74 102.443 95.74C101.963 95.74 101.643 95.716 101.483 95.668C101.323 95.628 101.243 95.556 101.243 95.452ZM105.227 90.484C105.227 89.804 105.191 89.328 105.119 89.056C105.047 88.784 104.939 88.648 104.795 88.648C104.651 88.648 104.547 88.728 104.483 88.888V92.032C104.483 92.24 104.591 92.344 104.807 92.344C105.087 92.344 105.227 91.724 105.227 90.484ZM119.004 93.22V92.512H118.908C118.868 92.552 118.808 92.604 118.728 92.668C118.648 92.732 118.46 92.816 118.164 92.92C117.868 93.024 117.536 93.076 117.168 93.076C116.808 93.076 116.488 93.02 116.208 92.908C115.936 92.788 115.72 92.632 115.56 92.44C115.4 92.24 115.276 91.976 115.188 91.648C115.036 91.128 114.96 90.392 114.96 89.44V87.784C114.96 87.616 115.196 87.452 115.668 87.292C116.14 87.124 116.636 87.04 117.156 87.04C117.852 87.04 118.2 87.22 118.2 87.58V89.092C118.2 90.692 118.328 91.492 118.584 91.492C118.736 91.492 118.812 91.384 118.812 91.168V87.784C118.812 87.616 119.064 87.452 119.568 87.292C120.072 87.124 120.612 87.04 121.188 87.04C121.764 87.04 122.052 87.196 122.052 87.508V93.184C122.052 94.968 120.844 95.86 118.428 95.86C117.156 95.86 116.292 95.736 115.836 95.488C115.636 95.376 115.536 95.26 115.536 95.14C115.536 94.948 115.616 94.624 115.776 94.168C115.936 93.72 116.084 93.496 116.22 93.496C116.252 93.496 116.364 93.52 116.556 93.568C117.148 93.728 117.64 93.808 118.032 93.808C118.432 93.808 118.692 93.764 118.812 93.676C118.94 93.588 119.004 93.436 119.004 93.22ZM131.269 92.872C131.269 93.344 131.161 93.668 130.945 93.844C130.729 94.02 130.409 94.108 129.985 94.108C129.569 94.108 129.253 94.02 129.037 93.844C128.821 93.668 128.713 93.344 128.713 92.872C128.713 92.4 128.821 92.088 129.037 91.936C129.261 91.776 129.581 91.696 129.997 91.696C130.413 91.696 130.729 91.776 130.945 91.936C131.161 92.088 131.269 92.4 131.269 92.872ZM141.829 93.712V90.376C141.829 89.776 141.805 89.34 141.757 89.068C141.709 88.796 141.593 88.66 141.409 88.66C141.249 88.66 141.169 88.768 141.169 88.984V93.712C141.169 93.8 140.937 93.872 140.473 93.928C140.009 93.976 139.533 94 139.045 94C138.557 94 138.249 93.98 138.121 93.94C137.993 93.892 137.929 93.816 137.929 93.712V85.396C137.929 85.228 138.161 85.06 138.625 84.892C139.089 84.724 139.577 84.64 140.089 84.64C140.625 84.64 140.965 84.74 141.109 84.94C141.157 85.004 141.181 85.072 141.181 85.144V86.908L141.049 87.736H141.133C141.245 87.568 141.421 87.42 141.661 87.292C142.109 87.052 142.597 86.932 143.125 86.932C143.885 86.932 144.397 87.176 144.661 87.664C144.933 88.144 145.069 88.928 145.069 90.016V93.712C145.069 93.8 144.833 93.872 144.361 93.928C143.897 93.976 143.421 94 142.933 94C142.453 94 142.149 93.98 142.021 93.94C141.893 93.892 141.829 93.816 141.829 93.712ZM154.081 94.108C153.185 94.108 152.557 93.876 152.197 93.412C151.845 92.948 151.669 92.14 151.669 90.988V87.724C151.669 87.564 151.905 87.412 152.377 87.268C152.849 87.116 153.345 87.04 153.865 87.04C154.561 87.04 154.909 87.22 154.909 87.58V90.628C154.909 91.236 154.933 91.68 154.981 91.96C155.029 92.232 155.149 92.368 155.341 92.368C155.597 92.368 155.725 92.26 155.725 92.044V87.724C155.725 87.556 155.973 87.4 156.469 87.256C156.965 87.112 157.505 87.04 158.089 87.04C158.673 87.04 158.965 87.196 158.965 87.508V93.688C158.965 93.8 158.713 93.88 158.209 93.928C157.705 93.976 157.209 94 156.721 94C156.233 94 155.985 93.936 155.977 93.808L155.857 93.028H155.761C155.689 93.316 155.545 93.552 155.329 93.736C155.217 93.832 155.049 93.92 154.825 94C154.609 94.072 154.361 94.108 154.081 94.108Z" fill="#495F73"/>
<path d="M63.9284 81.28C63.9284 81.5 63.3084 81.68 62.0684 81.82C60.8484 81.94 59.6184 82 58.3784 82C57.1584 82 56.3784 81.95 56.0384 81.85C55.7184 81.73 55.5584 81.54 55.5584 81.28V68.38H51.3884C51.1684 68.38 50.9784 68.1 50.8184 67.54C50.6584 66.98 50.5784 66.15 50.5784 65.05C50.5784 63.93 50.6984 62.93 50.9384 62.05C51.1784 61.15 51.4984 60.7 51.8984 60.7H68.1284C68.4284 60.7 68.6284 60.98 68.7284 61.54C68.8484 62.1 68.9084 62.91 68.9084 63.97C68.9084 65.03 68.7984 66.03 68.5784 66.97C68.3584 67.91 68.0584 68.38 67.6784 68.38H63.9284V81.28ZM78.9994 82.27C76.7594 82.27 75.1894 81.69 74.2894 80.53C73.4094 79.37 72.9694 77.35 72.9694 74.47V66.31C72.9694 65.91 73.5594 65.53 74.7394 65.17C75.9194 64.79 77.1594 64.6 78.4594 64.6C80.1994 64.6 81.0694 65.05 81.0694 65.95V73.57C81.0694 75.09 81.1294 76.2 81.2494 76.9C81.3694 77.58 81.6694 77.92 82.1494 77.92C82.7894 77.92 83.1094 77.65 83.1094 77.11V66.31C83.1094 65.89 83.7294 65.5 84.9694 65.14C86.2094 64.78 87.5594 64.6 89.0194 64.6C90.4794 64.6 91.2094 64.99 91.2094 65.77V81.22C91.2094 81.5 90.5794 81.7 89.3194 81.82C88.0594 81.94 86.8194 82 85.5994 82C84.3794 82 83.7594 81.84 83.7394 81.52L83.4394 79.57H83.1994C83.0194 80.29 82.6594 80.88 82.1194 81.34C81.8394 81.58 81.4194 81.8 80.8594 82C80.3194 82.18 79.6994 82.27 78.9994 82.27ZM103.801 72.52V81.28C103.801 81.5 103.231 81.68 102.091 81.82C100.971 81.94 99.8015 82 98.5815 82C97.3815 82 96.6015 81.95 96.2415 81.85C95.8815 81.73 95.7015 81.54 95.7015 81.28V66.49C95.7015 66.11 96.2515 65.7 97.3515 65.26C98.4715 64.82 99.6815 64.6 100.981 64.6C102.301 64.6 103.041 64.96 103.201 65.68L103.501 67.06H103.711C103.991 66.3 104.661 65.66 105.721 65.14C106.781 64.6 107.841 64.33 108.901 64.33C109.961 64.33 110.701 64.5 111.121 64.84C111.561 65.18 111.781 65.62 111.781 66.16C111.781 66.68 111.741 67.35 111.661 68.17C111.581 68.99 111.381 69.88 111.061 70.84C110.761 71.8 110.361 72.28 109.861 72.28C109.661 72.28 109.031 72.13 107.971 71.83C106.911 71.53 106.031 71.38 105.331 71.38C104.651 71.38 104.221 71.48 104.041 71.68C103.881 71.88 103.801 72.16 103.801 72.52ZM127.47 81.73C127.11 82.07 126.29 82.24 125.01 82.24C123.73 82.24 122.67 82.16 121.83 82C120.99 81.82 120.19 81.48 119.43 80.98C117.97 80 117.24 77.96 117.24 74.86V70.18H115.74C115.52 70.18 115.33 69.95 115.17 69.49C115.01 69.03 114.93 68.4 114.93 67.6C114.93 66.8 115.05 66.1 115.29 65.5C115.55 64.88 115.88 64.57 116.28 64.57H117.24V60.94C117.24 60.32 117.84 59.82 119.04 59.44C120.26 59.06 121.45 58.87 122.61 58.87C124.43 58.87 125.34 59.32 125.34 60.22V64.57H127.56C128.08 64.57 128.34 65.32 128.34 66.82C128.34 67.8 128.22 68.61 127.98 69.25C127.76 69.87 127.47 70.18 127.11 70.18H125.34V75.67C125.34 76.21 125.57 76.6 126.03 76.84C126.49 77.06 126.89 77.17 127.23 77.17C127.59 77.17 127.81 77.34 127.89 77.68C127.97 78.02 128.01 78.53 128.01 79.21C128.01 80.55 127.83 81.39 127.47 81.73ZM140.652 59.98V81.28C140.652 81.5 140.082 81.68 138.942 81.82C137.802 81.94 136.622 82 135.402 82C134.202 82 133.422 81.95 133.062 81.85C132.722 81.73 132.552 81.54 132.552 81.28V60.52C132.552 60.08 133.112 59.65 134.232 59.23C135.372 58.81 136.592 58.6 137.892 58.6C139.732 58.6 140.652 59.06 140.652 59.98ZM153.038 75.22C153.038 76.52 153.658 77.17 154.898 77.17C155.618 77.17 156.558 76.93 157.718 76.45C158.878 75.95 159.488 75.7 159.548 75.7C159.928 75.7 160.428 76.27 161.048 77.41C161.668 78.55 161.978 79.39 161.978 79.93C161.978 80.71 161.178 81.3 159.578 81.7C157.978 82.1 156.408 82.3 154.868 82.3C153.348 82.3 152.068 82.18 151.028 81.94C150.008 81.7 149.168 81.4 148.508 81.04C147.868 80.66 147.298 80.2 146.798 79.66C146.318 79.12 145.958 78.61 145.718 78.13C145.478 77.63 145.288 77.08 145.148 76.48C144.948 75.6 144.848 74.69 144.848 73.75C144.848 70.11 145.798 67.6 147.698 66.22C148.638 65.52 149.688 65.03 150.848 64.75C152.008 64.47 153.378 64.33 154.958 64.33C160.018 64.33 162.548 66.09 162.548 69.61C162.548 73.35 159.708 75.22 154.028 75.22H153.038ZM152.978 70.84V72.82C153.558 72.82 154.028 72.59 154.388 72.13C154.768 71.67 154.958 71.11 154.958 70.45C154.958 69.25 154.648 68.65 154.028 68.65C153.328 68.65 152.978 69.38 152.978 70.84Z" fill="#01D309"/>
<g clip-path="url(#clip0)">
<path d="M1.33871 39.005C1.63432 38.5247 2.05491 38.1137 2.66016 37.849C2.72184 37.8221 2.78233 37.7949 2.84281 37.7672C3.1176 37.6062 3.40681 37.4644 3.70883 37.3434C5.58346 36.3517 6.63452 35.2806 6.50915 34.904C6.40701 34.5976 5.55061 33.1476 5.27983 31.9431C5.06233 31.7184 4.92693 30.7891 4.87406 28.761C5.4785 15.7877 17.4156 2.85958 36.6313 0.421364C53.3711 -1.70281 68.3798 4.3769 73.0779 14.7146C74.4454 13.9615 75.3331 13.6355 75.3331 13.6355C76.7419 12.9697 78.4238 12.2035 78.9502 12.0821C79.9071 11.8614 84.6189 8.32763 85.0607 8.40133C85.5025 8.47504 87.6375 8.25393 87.7845 13.5545C87.873 16.735 87.9808 20.892 87.43 20.7546C87.4208 20.7522 86.4054 19.0779 84.2996 19.9106C83.962 20.044 83.6587 20.167 83.3916 20.2784C82.973 20.453 82.6437 20.5992 82.4122 20.7134C81.821 20.9525 81.1552 21.172 81.0114 21.015C80.7415 20.7206 80.5208 21.5137 82.0421 21.0679C82.2704 21.001 82.4731 20.9505 82.6577 20.91C85.2994 19.9227 87.5278 20.8808 87.12 21.6743C86.7547 22.5411 86.2155 23.2597 85.4284 23.8614C83.3876 25.4224 80.6129 29.136 79.5382 30.6136V30.614C79.4945 30.6741 79.4541 30.7302 79.416 30.7827C79.2838 30.9533 79.0291 31.2169 78.6553 31.5241L79.4601 31.9575C79.807 32.1221 80.2223 32.3481 80.6822 32.616L80.685 32.6176C83.1328 34.044 86.8488 36.6593 88.3012 37.5726C90.0825 38.6897 91.6551 39.859 92.9361 40.9545C94.2179 42.05 95.2097 43.0699 95.8502 43.895C97.1332 45.5461 98.0729 47.3126 98.6734 49.0342C99.2742 50.757 99.7997 52.5587 99.7597 54.0701C99.8374 55.6046 99.4228 58.0332 98.8272 59.1251C98.8023 59.1788 98.7695 59.2297 98.733 59.2794C98.1178 60.2175 97.0427 60.2371 96.0204 60.4502C94.419 60.7061 90.981 61.0062 89.7725 60.9124L89.7669 60.912C87.4392 60.9697 84.4979 60.6012 82.6309 58.5363C79.8987 55.5141 79.9796 51.6234 79.7016 49.7692C79.4533 49.2625 79.243 48.8379 79.0972 48.5732C78.7375 47.9203 78.1671 47.2461 77.4937 46.578C76.7951 45.9719 75.8554 45.1556 74.9337 44.3513L74.9333 44.3509C73.3267 42.9493 71.7765 41.587 71.6608 41.448L71.1957 41.5061C71.1957 41.5061 71.5882 42.1438 69.9688 43.0767C68.3493 44.0092 54.1727 48.4198 45.38 48.5736C44.7126 48.5852 44.2932 48.6601 42.7114 48.5431C41.7845 48.4742 42.5152 44.3184 44.3986 41.5065C45.2698 40.2059 41.8098 43.1872 40.7615 49.8982C40.7615 49.8982 39.8546 55.0186 40.4851 58.3496C40.5568 58.6797 40.6357 58.9877 40.7086 59.2465C40.7307 59.3158 40.7531 59.3939 40.7755 59.4764C40.8284 59.6519 40.8749 59.7921 40.9077 59.8806C41.6624 61.905 42.6037 63.5621 43.374 64.6657C43.871 65.3779 44.433 66.0809 44.9265 66.7991C45.9608 67.6867 46.2788 68.918 46.2135 69.8429C46.2392 70.1758 46.2231 70.5171 46.153 70.8684C45.9199 72.0328 44.6357 73.5673 43.6868 74.4021C42.7403 75.2333 41.1649 75.7019 39.5029 75.9319C37.8482 76.159 35.8298 75.9891 33.6592 75.1315C32.5784 74.7033 31.4661 74.1009 30.3946 73.3054C29.3243 72.5115 28.2972 71.5217 27.4088 70.3701C26.9646 69.7953 26.4967 69.0747 26.0585 68.2251C25.6199 67.3759 25.2129 66.3973 24.8865 65.3278C24.5592 64.2587 24.3141 63.1003 24.1763 61.9042C24.0373 60.7077 24.0056 59.4744 24.0773 58.2475C24.2191 55.7893 24.7787 53.3743 25.5895 51.152C26.2628 49.3022 27.1064 47.5786 28.0273 45.9936C25.4553 45.1812 19.4256 43.2369 16.3529 42.141C16.3509 42.1398 14.4587 41.0895 13.1344 40.0961C12.0369 39.2729 12.7583 40.596 14.4178 42.0785C13.7845 43.0691 12.3141 45.186 10.5123 46.5832C9.39559 47.5277 7.89429 48.1073 6.24158 48.1073C2.79395 48.1073 -0.00036454 45.5898 -0.00036454 42.4842C3.60205e-05 41.1688 0.501135 39.9619 1.33871 39.005ZM79.8702 14.7494C79.8702 14.1806 79.1769 13.3903 78.4162 13.4444C77.3796 13.5181 76.9253 14.475 76.9253 14.751C76.9253 15.2233 77.6539 16.0577 78.4162 16.0577C79.1785 16.0577 79.8702 15.3459 79.8702 14.7494ZM10.9261 34.9777C15.6928 37.1864 20.57 38.6585 26.6806 36.2051C30.5592 34.6477 45.3307 24.1314 52.1038 20.1069C57.0074 17.1928 67.0339 13.8778 69.1965 14.3941C70.4727 14.7378 70.9257 15.6158 71.2938 15.7877L71.2986 15.7861C71.7401 15.4973 72.159 15.2405 72.5484 15.0146C71.9588 13.8494 71.1392 13.1816 71.1036 13.1532C66.7222 10.1037 52.6325 13.8349 43.6131 20.5487C38.2576 24.5351 30.2143 31.7388 25.0611 34.304C19.9079 36.8692 12.7423 36.1558 6.39859 31.3338C6.25239 31.2229 6.14744 31.1528 6.07333 31.1131C6.0521 31.1552 6.03128 31.196 6.01045 31.2357C6.44826 31.8954 9.00104 34.3729 10.9261 34.9777Z" fill="url(#paint0_linear)"/>
</g>
<defs>
<linearGradient id="paint0_linear" x1="15.6306" y1="33.5887" x2="199.538" y2="104.757" gradientUnits="userSpaceOnUse">
<stop stop-color="#113234"/>
<stop offset="1" stop-color="#12A0BF" stop-opacity="0.25"/>
</linearGradient>
<clipPath id="clip0">
<rect width="99.7688" height="76.022" fill="white" transform="matrix(-1 0 0 1 99.7689 0)"/>
</clipPath>
</defs>
</svg>
