<svg width="36" height="36" viewBox="0 0 36 36" fill="none" xmlns="http://www.w3.org/2000/svg">
<path d="M31.7887 36H12.3514C10.0459 36 8.09918 34.0719 8.09918 31.7887V12.3514C8.09918 10.0291 10.0068 8.14007 12.3514 8.14007H31.7887C34.111 8.14007 36 10.0291 36 12.3514V31.7887C36 34.07 34.0719 36 31.7887 36ZM12.3514 9.83948C10.9458 9.83948 9.80045 10.9662 9.80045 12.3514V31.7887C9.80045 33.1497 10.9681 34.3006 12.3514 34.3006H31.7887C33.1497 34.3006 34.2987 33.1497 34.2987 31.7887V12.3514C34.2987 10.9662 33.1739 9.83948 31.7887 9.83948H12.3514V9.83948Z" fill="#FFD243"/>
<path d="M4.90116 28.5479C4.43075 28.5479 4.04959 28.1667 4.04959 27.6982V8.30183C4.04959 5.95724 5.95725 4.04958 8.30184 4.04958H27.6982C28.1686 4.04958 28.5497 4.43074 28.5497 4.89929C28.5497 5.36784 28.1686 5.74899 27.6982 5.74899H8.30184C6.91851 5.74899 5.75086 6.91664 5.75086 8.29997V27.6963C5.75272 28.1667 5.37156 28.5479 4.90116 28.5479Z" fill="#FFD243"/>
<path d="M0.851565 24.4983C0.381159 24.4983 0 24.1171 0 23.6486V4.25225C0 1.90765 1.90765 0 4.25225 0H23.6486C24.119 0 24.5002 0.381159 24.5002 0.849706C24.5002 1.31825 24.119 1.69941 23.6486 1.69941H4.25225C2.86892 1.69941 1.70127 2.86706 1.70127 4.25039V23.6467C1.70127 24.1171 1.32197 24.4983 0.851565 24.4983Z" fill="#FFD243"/>
<path d="M19.2588 27.4379C18.9352 27.4379 18.6061 27.343 18.3179 27.1497C17.801 26.7257 17.5333 26.1624 17.5333 25.5916V18.5466C17.5333 17.9591 17.7862 17.4255 18.2454 17.0425C18.7158 16.6501 19.3629 16.572 19.9746 16.8324C19.9969 16.8416 20.0174 16.8509 20.0397 16.864L26.6793 20.3874C27.2742 20.6848 27.6573 21.3337 27.6573 22.07C27.6573 22.7914 27.2854 23.4087 26.6625 23.7211L20.0397 27.2352C19.7998 27.3709 19.5321 27.4379 19.2588 27.4379ZM19.2569 18.3812C19.2532 18.4183 19.2383 18.4741 19.2383 18.5466V25.5916C19.2383 25.6548 19.2811 25.744 19.3368 25.7887L25.8853 22.2095C25.9225 22.1909 25.9597 22.1723 25.9597 22.07C25.9597 21.9696 25.9169 21.9083 25.9039 21.899L19.2848 18.3886C19.2699 18.3849 19.2606 18.383 19.2569 18.3812Z" fill="#FFD243"/>
</svg>
