<svg width="60" height="44" viewBox="0 0 60 44" fill="none" xmlns="http://www.w3.org/2000/svg">
<g clip-path="url(#clip0)" filter="url(#filter0_d)">
<path d="M45.702 36H13.5051C8.2633 36 4 31.7367 4 26.4949V9.56068C4 4.28974 8.2633 0 13.5051 0H45.7047C50.9465 0 55.2098 4.28974 55.2098 9.56068V26.4949C55.2072 31.7367 50.9439 36 45.702 36ZM13.5051 2.41992C9.59888 2.41992 6.41992 5.62533 6.41992 9.56333V26.4975C6.41992 30.4038 9.59624 33.5827 13.5051 33.5827H45.7047C49.6109 33.5827 52.7899 30.4038 52.7899 26.4975V9.56068C52.7899 5.62269 49.6136 2.41728 45.7047 2.41728H13.5051V2.41992Z" fill="#FFD243"/>
<path d="M25.1922 26.5213C24.687 26.5213 24.1925 26.3573 23.7482 26.04C22.9732 25.3814 22.6083 24.5854 22.6083 23.6729V12.3271C22.6083 11.3644 23.0129 10.5445 23.7482 10.0182C24.4146 9.43903 25.3799 9.33325 26.3188 9.80401C26.3294 9.8093 26.34 9.81459 26.3506 9.81988L36.8343 15.4664C37.7626 16.0429 38.2756 16.9871 38.2756 18.0291C38.2756 19.0341 37.7626 19.9571 36.9004 20.494L26.3532 26.233C25.9697 26.4261 25.5757 26.5213 25.1922 26.5213ZM25.1472 11.9357C25.1181 12.0097 25.0256 12.0758 25.0256 12.3271V23.6729C25.0256 23.8766 25.0864 24.0062 25.2371 24.1384L35.6812 18.4047C35.6891 18.3967 35.8531 18.2671 35.8531 18.0265C35.8531 17.8122 35.7737 17.6536 35.6177 17.5557L25.2213 11.9621C25.171 11.9383 25.1472 11.9357 25.1472 11.9357Z" fill="#FFD243"/>
</g>
<defs>
<filter id="filter0_d" x="0" y="0" width="59.2072" height="44" filterUnits="userSpaceOnUse" color-interpolation-filters="sRGB">
<feFlood flood-opacity="0" result="BackgroundImageFix"/>
<feColorMatrix in="SourceAlpha" type="matrix" values="0 0 0 0 0 0 0 0 0 0 0 0 0 0 0 0 0 0 127 0"/>
<feOffset dy="4"/>
<feGaussianBlur stdDeviation="2"/>
<feColorMatrix type="matrix" values="0 0 0 0 0 0 0 0 0 0 0 0 0 0 0 0 0 0 0.25 0"/>
<feBlend mode="normal" in2="BackgroundImageFix" result="effect1_dropShadow"/>
<feBlend mode="normal" in="SourceGraphic" in2="effect1_dropShadow" result="shape"/>
</filter>
<clipPath id="clip0">
<rect width="51.2072" height="36" fill="white" transform="translate(4)"/>
</clipPath>
</defs>
</svg>
