<svg width="33" height="36" viewBox="0 0 33 36" fill="none" xmlns="http://www.w3.org/2000/svg">
<g clip-path="url(#clip0)">
<path d="M18.7728 15.5541V17.2339C19.3931 17.8542 19.7754 18.7091 19.7754 19.6547C19.7754 21.5457 18.2364 23.0813 16.3487 23.0813C14.461 23.0813 12.922 21.5423 12.922 19.6547C12.922 18.565 13.435 17.596 14.2297 16.9656V15.3898C12.6639 16.171 11.5809 17.7871 11.5809 19.6547C11.5809 22.2833 13.72 24.4225 16.3487 24.4225C18.9774 24.4225 21.1165 22.2833 21.1165 19.6547C21.1165 17.9078 20.1743 16.3856 18.7728 15.5541Z" fill="#FFD243"/>
<path d="M24.0972 15.031C24.9086 16.3856 25.3747 17.9648 25.3747 19.6513C25.3747 24.6303 21.3244 28.6773 16.3487 28.6773C11.373 28.6773 7.31937 24.6303 7.31937 19.6513C7.31937 15.4032 10.2699 11.8357 14.2263 10.8768V9.49874C9.52222 10.4811 5.97821 14.6588 5.97821 19.6479C5.97821 25.3646 10.6287 30.0151 16.3454 30.0151C22.062 30.0151 26.7125 25.3646 26.7125 19.6479C26.7125 18.1056 26.3705 16.6438 25.767 15.3261C25.2104 15.2691 24.6538 15.1685 24.0972 15.031Z" fill="#FFD243"/>
<path d="M30.9975 2.2699C30.8164 2.14249 30.5884 2.11567 30.3805 2.18944C28.5365 2.87007 26.2766 2.92037 24.3722 2.33696V1.22045C24.3722 0.911984 24.1609 0.643752 23.8625 0.569989C20.3554 -0.295057 19.3428 -0.0771193 16.3453 0.566636C16.0369 0.633694 15.8156 0.905278 15.8156 1.2238V1.59262V10.1626V19.6546C15.8156 20.0235 16.1173 20.3252 16.4862 20.3252C16.8583 20.3252 17.1567 20.0235 17.1567 19.6546V10.7158C19.6111 10.2498 20.5901 10.2062 23.0344 10.7058V11.7619C23.0344 12.0436 23.2087 12.295 23.4736 12.3923C24.7142 12.8449 25.938 13.0729 27.1584 13.0729C28.3822 13.0729 29.6027 12.8449 30.8432 12.3923C31.1081 12.295 31.2825 12.0436 31.2825 11.7619V2.81978C31.2858 2.60184 31.1785 2.39731 30.9975 2.2699ZM23.0344 9.3378C20.6572 8.8751 19.4904 8.92204 17.1567 9.35121V1.76362C19.5105 1.26404 20.4292 1.14669 23.0344 1.75021V9.3378ZM29.9447 11.2825C28.0771 11.8759 26.2464 11.8759 24.3755 11.2825V3.73512C26.1693 4.20788 28.1509 4.20788 29.9447 3.73512V11.2825Z" fill="#FFD243"/>
<path d="M31.6513 14.5951C31.2959 14.7259 30.9438 14.8365 30.5884 14.9371C31.0813 16.4225 31.3562 18.005 31.3562 19.6513C31.3562 27.9262 24.6236 34.6588 16.3487 34.6588C8.07376 34.6588 1.34116 27.9262 1.34116 19.6513C1.34116 12.0972 6.9539 5.83068 14.2263 4.79799V3.44677C6.21291 4.48952 0 11.3562 0 19.6513C0 28.6639 7.33277 36 16.3487 36C25.3613 36 32.6974 28.6672 32.6974 19.6513C32.6974 17.8575 32.4057 16.1308 31.8659 14.5147L31.6513 14.5951Z" fill="#FFD243"/>
</g>
<defs>
<clipPath id="clip0">
<rect width="32.694" height="36" fill="white"/>
</clipPath>
</defs>
</svg>
