<svg width="36" height="36" viewBox="0 0 36 36" fill="none" xmlns="http://www.w3.org/2000/svg">
<g clip-path="url(#clip0)">
<path d="M30.6111 36H5.49466C2.51548 36 0 33.5085 0 30.5582V5.44181C0 2.441 2.46503 0 5.49466 0H30.6111C33.6119 0 36.0529 2.441 36.0529 5.44181V30.5582C36.0529 33.5061 33.5614 36 30.6111 36ZM5.49466 2.19594C3.67832 2.19594 2.19834 3.6519 2.19834 5.44181V30.5582C2.19834 32.3169 3.70715 33.8041 5.49466 33.8041H30.6111C32.3697 33.8041 33.8545 32.3169 33.8545 30.5582V5.44181C33.8545 3.6519 32.401 2.19594 30.6111 2.19594H5.49466V2.19594Z" fill="#FFD243"/>
<path d="M14.4202 24.9362C14.0021 24.9362 13.5769 24.8137 13.2045 24.5638C12.5366 24.016 12.1906 23.288 12.1906 22.5504V13.4471C12.1906 12.6879 12.5173 11.9984 13.1108 11.5035C13.7186 10.9965 14.5547 10.8956 15.3452 11.232C15.374 11.244 15.4004 11.256 15.4293 11.2728L24.0088 15.8257C24.7776 16.2101 25.2726 17.0486 25.2726 18C25.2726 18.9322 24.792 19.7298 23.9872 20.1335L15.4293 24.6743C15.1193 24.8497 14.7734 24.9362 14.4202 24.9362ZM14.4178 13.2333C14.413 13.2814 14.3937 13.3534 14.3937 13.4471V22.5504C14.3937 22.6321 14.449 22.7475 14.5211 22.8051L22.9829 18.1802C23.031 18.1562 23.079 18.1321 23.079 18C23.079 17.8703 23.0238 17.791 23.0069 17.779L14.4538 13.2429C14.4346 13.2381 14.4226 13.2357 14.4178 13.2333Z" fill="#FFD243"/>
</g>
<defs>
<clipPath id="clip0">
<rect width="36" height="36" fill="white"/>
</clipPath>
</defs>
</svg>
